<svg xmlns="http://www.w3.org/2000/svg" xmlns:xlink="http://www.w3.org/1999/xlink" width="84" height="89"><defs><path id="b" d="M42.51 2.36l20 11.57A15 15 0 0 1 70 26.912v23.189a15 15 0 0 1-7.49 12.984l-20 11.57a15 15 0 0 1-15.02 0l-20-11.57A15 15 0 0 1 0 50.102V26.913A15 15 0 0 1 7.49 13.93l20-11.569a15 15 0 0 1 15.02 0z"/><filter id="a" width="124.3%" height="121.5%" x="-12.1%" y="-10.8%" filterUnits="objectBoundingBox"><feMorphology in="SourceAlpha" operator="dilate" radius="2.5" result="shadowSpreadOuter1"/><feOffset in="shadowSpreadOuter1" result="shadowOffsetOuter1"/><feGaussianBlur in="shadowOffsetOuter1" result="shadowBlurOuter1" stdDeviation="2"/><feComposite in="shadowBlurOuter1" in2="SourceAlpha" operator="out" result="shadowBlurOuter1"/><feColorMatrix in="shadowBlurOuter1" values="0 0 0 0 0.488919005 0 0 0 0 0.488919005 0 0 0 0 0.488919005 0 0 0 0.5 0"/></filter></defs><g fill="none" fill-rule="evenodd"><g transform="translate(7 6)"><use fill="#000" filter="url(#a)" xlink:href="#b"/><use fill="#4094D6" stroke="#E0EFFB" stroke-width="5" xlink:href="#b"/></g><g fill="#FFF" fill-rule="nonzero"><path d="M51.698 44.978c-2.019 2.06-5.581 3.46-9.698 3.46-4.077 0-7.68-1.4-9.698-3.46.673 3.383 4.75 5.95 9.698 5.95 4.948.039 9.025-2.567 9.698-5.95z"/><path d="M36.696 46.806c.594-.35 1.108-.623 1.385-.74.396.312 1.148.973 1.702 1.478.713.078 1.465.156 2.257.156 1.702 0 3.285-.233 4.71-.661-.277-.428-.792-1.128-1.425-1.245-.831-.155-2.533.156-4.315.662-.277-.234-.672-.623-1.108-1.012-.435-.35-.87-.7-1.108-.894-.317-.194-.99-.583-3.88 1.439a12.36 12.36 0 0 0 1.782.817zm10.489-.35c.159.116.357.155.515.233a14.282 14.282 0 0 0 1.9-.933c.317-.74.08-1.595-.633-2.023-.792-.466-1.821-.272-2.296.506-.475.7-.277 1.711.514 2.217z"/><path d="M60.763 37.239c-.594-.7-1.86-1.945-3.563-2.139.633-.389 1.346-.544 1.82-.622.199-.04.278-.311.08-.428-.831-.544-2.573-1.439-4.156-.311a5.43 5.43 0 0 0-1.267 1.244c-.277-.427-.712-.855-1.267-1.244-1.622-1.167-3.364-.233-4.156.311-.158.117-.119.389.08.428a5.968 5.968 0 0 1 1.82.622c-1.702.156-2.969 1.439-3.562 2.139-.12.155 0 .389.198.35.791-.156 2.216-.311 3.443-.039-1.108.817-1.108 2.256-.99 3.033.04.195.238.234.357.078.396-.544 1.267-1.478 2.454-1.594.277-.04.515-.04.752-.078 1.504 4.783.792 8.633.08 10.811-3.523.272-6.255 2.683-6.255 3.5 0 .894 3.127.272 6.967.272s6.967.545 6.967-.272c0-.661-1.9-2.411-4.552-3.189.277-2.217.475-6.455-1.307-11.122.198.039.396.039.594.078 1.148.116 2.019 1.05 2.454 1.594.119.156.356.078.356-.078.12-.739.12-2.177-.99-3.033 1.228-.272 2.653-.078 3.445.039.198.039.316-.195.198-.35zM31.115 49.8c-.713-2.178-1.425-6.028.079-10.811.237.039.475.039.752.078 1.148.116 2.019 1.05 2.454 1.594.119.156.356.078.356-.078.119-.739.119-2.177-.99-3.033 1.228-.272 2.653-.078 3.444.039.198.039.357-.195.198-.35-.593-.7-1.86-1.945-3.562-2.139.633-.389 1.346-.544 1.82-.622.199-.04.278-.311.08-.428-.831-.544-2.573-1.439-4.156-.311a5.43 5.43 0 0 0-1.267 1.244c-.277-.427-.713-.855-1.267-1.244-1.623-1.167-3.364-.233-4.156.311-.158.117-.119.389.08.428a5.968 5.968 0 0 1 1.82.622c-1.702.156-2.969 1.439-3.563 2.139-.118.155 0 .389.198.35.792-.156 2.217-.311 3.444-.039-1.108.817-1.108 2.256-.99 2.994.04.195.238.234.357.078.396-.544 1.266-1.478 2.454-1.594.198 0 .396-.04.594-.078-1.742 4.667-1.584 8.867-1.307 11.122-2.652.817-4.512 2.606-4.512 3.267 0 .855 3.127.272 6.967.272s6.966.622 6.966-.272c-.04-.856-2.77-3.228-6.293-3.539z"/></g></g></svg>