<svg xmlns="http://www.w3.org/2000/svg" xmlns:xlink="http://www.w3.org/1999/xlink" width="84" height="89"><defs><path id="b" d="M42.51 2.36l20 11.57A15 15 0 0 1 70 26.912v23.189a15 15 0 0 1-7.49 12.984l-20 11.57a15 15 0 0 1-15.02 0l-20-11.57A15 15 0 0 1 0 50.102V26.913A15 15 0 0 1 7.49 13.93l20-11.569a15 15 0 0 1 15.02 0z"/><filter id="a" width="124.3%" height="121.5%" x="-12.1%" y="-10.8%" filterUnits="objectBoundingBox"><feMorphology in="SourceAlpha" operator="dilate" radius="2.5" result="shadowSpreadOuter1"/><feOffset in="shadowSpreadOuter1" result="shadowOffsetOuter1"/><feGaussianBlur in="shadowOffsetOuter1" result="shadowBlurOuter1" stdDeviation="2"/><feComposite in="shadowBlurOuter1" in2="SourceAlpha" operator="out" result="shadowBlurOuter1"/><feColorMatrix in="shadowBlurOuter1" values="0 0 0 0 0.488919005 0 0 0 0 0.488919005 0 0 0 0 0.488919005 0 0 0 0.5 0"/></filter></defs><g fill="none" fill-rule="evenodd"><g transform="translate(7 6)"><use fill="#000" filter="url(#a)" xlink:href="#b"/><use fill="#4094D6" stroke="#E0EFFB" stroke-width="5" xlink:href="#b"/></g><path fill="#FFF" fill-rule="nonzero" d="M43.75 28.29a15.968 15.968 0 0 0-15.452 11.968l2.376.616A13.495 13.495 0 0 1 43.75 30.745 13.486 13.486 0 0 1 57.255 44.25a13.494 13.494 0 0 1-10.127 13.076l.614 2.376A15.97 15.97 0 0 0 59.71 44.25c0-8.8-7.16-15.96-15.96-15.96zm5.086 9.191l-3.858 6.429v2.796h4.91v2.455h2.456v-2.455h1.227V44.25h-1.227v-2.455h-2.456v2.455h-2.251l3.304-5.508-2.105-1.261zm-9.997.63a3.702 3.702 0 0 0-3.683 3.684h2.455a1.2 1.2 0 0 1 1.228-1.228h1.228c.701 0 1.227.526 1.227 1.228a1.2 1.2 0 0 1-1.227 1.228h-1.228a3.702 3.702 0 0 0-3.683 3.683v2.455h8.594v-2.455h-6.14a1.2 1.2 0 0 1 1.228-1.228h1.228a3.702 3.702 0 0 0 3.683-3.683 3.702 3.702 0 0 0-3.683-3.683h-1.228zm-13.505 6.14v1.227c0 9.478 7.71 17.188 17.188 17.188h1.228v-5.669l-6.38-3.191-3.375 3.373a14.296 14.296 0 0 1-3.174-3.174l3.373-3.374-3.191-6.38h-5.669zm2.456 2.455h1.697l1.72 3.44-1.782 1.782c-.791-1.602-1.474-3.354-1.635-5.222zm10.063 10.087l3.441 1.72v1.697c-1.868-.161-3.62-.844-5.222-1.635l1.781-1.782z"/></g></svg>