<svg xmlns="http://www.w3.org/2000/svg" xmlns:xlink="http://www.w3.org/1999/xlink" width="84" height="89"><defs><path id="b" d="M42.51 2.36l20 11.57A15 15 0 0 1 70 26.912v23.189a15 15 0 0 1-7.49 12.984l-20 11.57a15 15 0 0 1-15.02 0l-20-11.57A15 15 0 0 1 0 50.102V26.913A15 15 0 0 1 7.49 13.93l20-11.569a15 15 0 0 1 15.02 0z"/><filter id="a" width="124.3%" height="121.5%" x="-12.1%" y="-10.8%" filterUnits="objectBoundingBox"><feMorphology in="SourceAlpha" operator="dilate" radius="2.5" result="shadowSpreadOuter1"/><feOffset in="shadowSpreadOuter1" result="shadowOffsetOuter1"/><feGaussianBlur in="shadowOffsetOuter1" result="shadowBlurOuter1" stdDeviation="2"/><feComposite in="shadowBlurOuter1" in2="SourceAlpha" operator="out" result="shadowBlurOuter1"/><feColorMatrix in="shadowBlurOuter1" values="0 0 0 0 0.488919005 0 0 0 0 0.488919005 0 0 0 0 0.488919005 0 0 0 0.5 0"/></filter></defs><g fill="none" fill-rule="evenodd"><g transform="translate(7 6)"><use fill="#000" filter="url(#a)" xlink:href="#b"/><use fill="#4094D6" stroke="#E0EFFB" stroke-width="5" xlink:href="#b"/></g><path fill="#FFF" d="M25.956 38.638l26.283-5.87-.365-1.583a.854.854 0 0 0-1.015-.633l-24.632 5.464a.839.839 0 0 0-.643 1c.125.538.247 1.084.372 1.622zm-.219-4.057l24.944-5.528c1.19-.263 2.375.474 2.642 1.646l2.614 11.378h-1.562l-1.185-5.153-26.283 5.87 1.627 7.067.145.626a.475.475 0 0 0 .57.354l.195-.044v1.507l-.028.008a1.847 1.847 0 0 1-2.198-1.367l-3.16-13.757a2.095 2.095 0 0 1 .287-1.646c.324-.51.798-.83 1.392-.96v-.001zm6.475 7.907c-1.218 0-2.21.98-2.21 2.18v14.156c0 1.2.992 2.176 2.21 2.176h25.575C59.005 61 60 60.02 60 58.824V44.668c0-1.2-.995-2.18-2.213-2.18H32.212zm25.036 6.337v-2.882a.334.334 0 0 0-.34-.335h-6.543a.34.34 0 0 0-.34.335v2.882a.34.34 0 0 0 .34.334h6.543a.34.34 0 0 0 .34-.334zm-4.823 8.736a.34.34 0 0 1-.344-.335v-.67a.34.34 0 0 1 .344-.335h4.48a.34.34 0 0 1 .34.335v.67a.34.34 0 0 1-.34.335h-4.48zm-6.252 0a.34.34 0 0 1-.34-.335v-.666c0-.187.154-.334.34-.334h4.483a.34.34 0 0 1 .34.334v.666a.34.34 0 0 1-.34.335h-4.483zm-6.248 0a.34.34 0 0 1-.34-.335v-.666c0-.187.154-.334.34-.334h4.484a.34.34 0 0 1 .34.334v.666a.34.34 0 0 1-.34.335h-4.484zm-6.248 0a.34.34 0 0 1-.34-.335v-.666c0-.187.154-.334.34-.334h4.484a.34.34 0 0 1 .34.334v.666a.34.34 0 0 1-.34.335h-4.484z"/></g></svg>