<svg xmlns="http://www.w3.org/2000/svg" xmlns:xlink="http://www.w3.org/1999/xlink" width="84" height="90"><defs><path id="b" d="M42.486 1.997l20 11.518A15 15 0 0 1 70 26.514v22.972a15 15 0 0 1-7.514 12.999l-20 11.518a15 15 0 0 1-14.972 0l-20-11.518A15 15 0 0 1 0 49.486V26.514a15 15 0 0 1 7.514-12.999l20-11.518a15 15 0 0 1 14.972 0z"/><filter id="a" width="124.3%" height="122.4%" x="-12.1%" y="-11.2%" filterUnits="objectBoundingBox"><feMorphology in="SourceAlpha" operator="dilate" radius="2.5" result="shadowSpreadOuter1"/><feOffset in="shadowSpreadOuter1" result="shadowOffsetOuter1"/><feGaussianBlur in="shadowOffsetOuter1" result="shadowBlurOuter1" stdDeviation="2"/><feComposite in="shadowBlurOuter1" in2="SourceAlpha" operator="out" result="shadowBlurOuter1"/><feColorMatrix in="shadowBlurOuter1" values="0 0 0 0 0.488919005 0 0 0 0 0.488919005 0 0 0 0 0.488919005 0 0 0 0.5 0"/></filter></defs><g fill="none" fill-rule="evenodd"><g transform="translate(7 7)"><use fill="#000" filter="url(#a)" xlink:href="#b"/><use fill="#FFB334" stroke="#FBEEE0" stroke-width="5" xlink:href="#b"/></g><g fill="#FFF" fill-rule="nonzero"><path d="M42 28c-6.634 0-12 5.302-12 11.857 0 7.401 7.118 17.859 10.36 22.314a2 2 0 0 0 3.242 0C46.882 57.716 54 47.258 54 39.857 54 33.302 48.634 28 42 28zm.075 19.406c-4.249 0-7.715-3.425-7.715-7.623s3.466-7.622 7.715-7.622c4.248 0 7.714 3.424 7.714 7.622a7.684 7.684 0 0 1-7.714 7.623z"/><path d="M46.455 38.326l-2.443-.19c-.218-.038-.437-.152-.51-.38l-.948-2.357c-.218-.532-.91-.532-1.093 0l-.948 2.357a.55.55 0 0 1-.51.38l-2.442.19c-.547.038-.766.722-.328 1.103l1.859 1.672c.182.152.255.38.182.608l-.583 2.51c-.11.531.437.987.91.683l2.115-1.33a.604.604 0 0 1 .62 0l2.114 1.33c.474.304 1.02-.152.911-.684l-.583-2.509a.72.72 0 0 1 .182-.608l1.859-1.672c.364-.38.146-1.065-.364-1.103z"/></g></g></svg>