<svg xmlns="http://www.w3.org/2000/svg" xmlns:xlink="http://www.w3.org/1999/xlink" width="84" height="89"><defs><path id="b" d="M42.51 2.36l20 11.57A15 15 0 0 1 70 26.912v23.189a15 15 0 0 1-7.49 12.984l-20 11.57a15 15 0 0 1-15.02 0l-20-11.57A15 15 0 0 1 0 50.102V26.913A15 15 0 0 1 7.49 13.93l20-11.569a15 15 0 0 1 15.02 0z"/><filter id="a" width="124.3%" height="121.5%" x="-12.1%" y="-10.8%" filterUnits="objectBoundingBox"><feMorphology in="SourceAlpha" operator="dilate" radius="2.5" result="shadowSpreadOuter1"/><feOffset in="shadowSpreadOuter1" result="shadowOffsetOuter1"/><feGaussianBlur in="shadowOffsetOuter1" result="shadowBlurOuter1" stdDeviation="2"/><feComposite in="shadowBlurOuter1" in2="SourceAlpha" operator="out" result="shadowBlurOuter1"/><feColorMatrix in="shadowBlurOuter1" values="0 0 0 0 0.488919005 0 0 0 0 0.488919005 0 0 0 0 0.488919005 0 0 0 0.5 0"/></filter></defs><g fill="none" fill-rule="evenodd"><g transform="translate(7 6)"><use fill="#000" filter="url(#a)" xlink:href="#b"/><use fill="#4094D6" stroke="#E0EFFB" stroke-width="5" xlink:href="#b"/></g><path fill="#FFF" fill-rule="nonzero" d="M55.882 39.332l-7.732-1.109a1.3 1.3 0 0 1-.996-.693l-3.462-6.837c-.475-.924-1.85-.924-2.325 0l-3.462 6.837a1.3 1.3 0 0 1-.996.693l-7.78 1.11c-1.09.138-1.517 1.431-.711 2.17l5.597 5.313c.285.278.427.693.38 1.11l-1.329 7.576c-.19 1.062.95 1.848 1.898 1.34l6.925-3.558c.38-.185.854-.185 1.233 0l6.926 3.558c.948.508 2.087-.324 1.897-1.34l-1.328-7.53a1.104 1.104 0 0 1 .38-1.11l5.596-5.312c.807-.786.332-2.033-.711-2.218z"/></g></svg>