<svg xmlns="http://www.w3.org/2000/svg" xmlns:xlink="http://www.w3.org/1999/xlink" width="84" height="89"><defs><path id="b" d="M42.51 2.36l20 11.57A15 15 0 0 1 70 26.912v23.189a15 15 0 0 1-7.49 12.984l-20 11.57a15 15 0 0 1-15.02 0l-20-11.57A15 15 0 0 1 0 50.102V26.913A15 15 0 0 1 7.49 13.93l20-11.569a15 15 0 0 1 15.02 0z"/><filter id="a" width="124.3%" height="121.5%" x="-12.1%" y="-10.8%" filterUnits="objectBoundingBox"><feMorphology in="SourceAlpha" operator="dilate" radius="2.5" result="shadowSpreadOuter1"/><feOffset in="shadowSpreadOuter1" result="shadowOffsetOuter1"/><feGaussianBlur in="shadowOffsetOuter1" result="shadowBlurOuter1" stdDeviation="2"/><feComposite in="shadowBlurOuter1" in2="SourceAlpha" operator="out" result="shadowBlurOuter1"/><feColorMatrix in="shadowBlurOuter1" values="0 0 0 0 0.488919005 0 0 0 0 0.488919005 0 0 0 0 0.488919005 0 0 0 0.5 0"/></filter></defs><g fill="none" fill-rule="evenodd"><g transform="translate(7 6)"><use fill="#000" filter="url(#a)" xlink:href="#b"/><use fill="#4094D6" stroke="#E0EFFB" stroke-width="5" xlink:href="#b"/></g><g fill="#FFF" fill-rule="nonzero"><path d="M49.967 32.101H35.133c-1.6 0-2.933 1.317-2.933 2.97v20.925c0 1.62 1.3 2.97 2.933 2.97h14.834c1.6 0 2.933-1.316 2.933-2.97V35.038c-.033-1.62-1.333-2.937-2.933-2.937zm0 24.908H35.133a1.045 1.045 0 0 1-1.033-1.047V35.037c0-.573.467-1.046 1.033-1.046h14.834c.566 0 1.033.473 1.033 1.047v20.925c-.033.573-.5 1.046-1.033 1.046z"/><path d="M48.8 54.039H36.167c-.4 0-.7.303-.7.708 0 .406.3.71.7.71H48.8c.4 0 .7-.304.7-.71 0-.37-.3-.708-.7-.708zm0-2.97H36.167c-.4 0-.7.303-.7.708 0 .406.3.71.7.71H48.8c.4 0 .7-.305.7-.71 0-.37-.3-.708-.7-.708zm0-2.97H36.167c-.4 0-.7.303-.7.709 0 .404.3.708.7.708H48.8c.4 0 .7-.303.7-.708a.71.71 0 0 0-.7-.71zm-12.833-3.274h13c.233 0 .4-.169.4-.405v-8.37a.408.408 0 0 0-.4-.405h-13c-.234 0-.4.169-.4.405v8.336c0 .236.2.439.4.439z"/></g></g></svg>