<svg xmlns="http://www.w3.org/2000/svg" xmlns:xlink="http://www.w3.org/1999/xlink" width="33" height="35" viewBox="0 0 33 35">
    <defs>
        <path id="b" d="M14 .67l6.5 3.75A5 5 0 0 1 23 8.75v7.5a5 5 0 0 1-2.5 4.33L14 24.33a5 5 0 0 1-5 0l-6.5-3.75A5 5 0 0 1 0 16.25v-7.5a5 5 0 0 1 2.5-4.33L9 .67a5 5 0 0 1 5 0z"/>
        <filter id="a" width="160.9%" height="156%" x="-30.4%" y="-28%" filterUnits="objectBoundingBox">
            <feMorphology in="SourceAlpha" operator="dilate" radius="1" result="shadowSpreadOuter1"/>
            <feOffset in="shadowSpreadOuter1" result="shadowOffsetOuter1"/>
            <feGaussianBlur in="shadowOffsetOuter1" result="shadowBlurOuter1" stdDeviation="2"/>
            <feComposite in="shadowBlurOuter1" in2="SourceAlpha" operator="out" result="shadowBlurOuter1"/>
            <feColorMatrix in="shadowBlurOuter1" values="0 0 0 0 0.488919005 0 0 0 0 0.488919005 0 0 0 0 0.488919005 0 0 0 0.5 0"/>
        </filter>
    </defs>
    <g fill="none" fill-rule="evenodd">
        <g transform="translate(5 5)">
            <use fill="#000" filter="url(#a)" xlink:href="#b"/>
            <use fill="#DD4343" stroke="#FBE0E0" stroke-width="2" xlink:href="#b"/>
        </g>
        <path fill="#FFF" d="M16.654 17.535c0 .832-.188 1.466-.563 1.902-.375.437-.884.655-1.529.655-.647 0-1.16-.218-1.538-.654-.378-.437-.567-1.071-.567-1.903V16.07c0-.829.188-1.463.563-1.903.375-.439.886-.659 1.533-.659.645 0 1.156.22 1.534.66.378.439.567 1.073.567 1.902v1.464zm-1.068-1.626c0-.525-.088-.913-.264-1.165-.176-.252-.432-.378-.769-.378s-.592.126-.767.378c-.174.252-.261.64-.261 1.165v1.78c0 .527.089.917.266 1.17.177.254.434.38.771.38s.592-.125.765-.377c.173-.252.259-.643.259-1.174v-1.78zm4.544.571h1.67v.976h-1.67v1.902h-1.037v-1.902h-1.679v-.976h1.679V14.7h1.037v1.78z"/>
    </g>
</svg>
