<svg xmlns="http://www.w3.org/2000/svg" width="22" height="32" viewBox="0 0 22 32">
    <g fill="#4AA5ED" fill-rule="nonzero" stroke="#4AA5ED" stroke-width=".3" transform="translate(1 1)">
        <path d="M17.736 5.899C16.693 2.407 13.562 0 10 0c-.063 0-.125.006-.188.008C9.753.005 9.695 0 9.634 0a.458.458 0 0 0-.129.02C6.151.233 3.258 2.57 2.264 5.9 1.004 5.974 0 7.059 0 8.383c0 1.28.941 2.336 2.145 2.47V21.87C2.145 26.352 5.669 30 10 30c3.798 0 6.938-2.732 7.683-6.44l.024-.121a10.358 10.358 0 0 0 .087-.574c.013-.108.024-.218.033-.327 0-.016.002-.031.003-.047.01-.125.016-.25.02-.377v-.01-.003c.002-.078.005-.155.005-.233V10.853C19.06 10.72 20 9.663 20 8.383c0-1.324-1.003-2.409-2.264-2.484zM3.49 13.364a8.286 8.286 0 0 0 .658.81l.14.149c.104.107.212.21.321.312.036.032.07.067.107.1.146.13.297.255.452.375.036.027.073.052.11.078.121.091.245.179.372.262.055.037.112.072.169.108a7.989 7.989 0 0 0 .903.487c.052.023.102.048.153.07.18.079.363.15.549.215.027.01.056.017.084.027.159.053.32.101.482.145l.19.046a7.782 7.782 0 0 0 1.022.173l.19.02c.201.015.403.025.608.025.204 0 .407-.01.608-.026.064-.005.127-.013.19-.02a7.604 7.604 0 0 0 1.019-.172c.064-.015.13-.03.194-.047.16-.042.318-.09.475-.142.03-.01.061-.018.091-.029.185-.064.366-.136.545-.214.055-.023.107-.05.16-.074a7.828 7.828 0 0 0 .894-.482 8.12 8.12 0 0 0 .538-.366c.04-.03.08-.056.119-.086.154-.119.304-.243.45-.373.038-.034.074-.07.112-.106.107-.099.212-.2.314-.304.05-.05.096-.102.144-.154a8.615 8.615 0 0 0 .656-.805c.032-.046.067-.09.099-.137a8.33 8.33 0 0 0 .312-.488v3.344c-2.315 2.552-6.402 3.415-9.495 3.681a18.371 18.371 0 0 1-4.346-2.945V12.74c.098.167.203.33.312.489l.099.135zm12.416 8.29h-.024a21.562 21.562 0 0 1-2.455-.149c-.128-.015-.253-.033-.379-.05a19.027 19.027 0 0 1-3.801-.93c2.632-.397 5.586-1.265 7.673-3.1v4.203l-.105.005c-.305.012-.61.02-.909.02zm-12.826.214V18.09c2.097 1.755 5.188 3.58 9.375 4.256l.026.005c.343.055.692.102 1.05.14l.086.011c.335.035.676.062 1.024.082l.116.008c.376.019.758.03 1.15.03h.03c.28-.001.565-.008.85-.02l.096-.001a7.4 7.4 0 0 1-.09.634l-.01.058a7.436 7.436 0 0 1-.293 1.062c-.776 2.164-2.535 3.838-4.713 4.437a6.52 6.52 0 0 1-.388.095c-.063.014-.126.024-.189.035-.167.03-.336.057-.508.074l-.082.007c-.2.018-.404.03-.61.03-3.816 0-6.92-3.214-6.92-7.165zM17.597 9.903h-.215a.47.47 0 0 0-.452.361c-.823 3.258-3.673 5.533-6.93 5.533-3.257 0-6.107-2.275-6.93-5.533a.47.47 0 0 0-.452-.361h-.214c-.81 0-1.469-.682-1.469-1.52s.659-1.52 1.469-1.52h.214A.47.47 0 0 0 3.07 6.5c.806-3.19 3.555-5.43 6.726-5.524 1.157.09 1.29 1.14 1.29 1.603 0 .521-.383.936-.871.946a.637.637 0 0 1-.629-.627.408.408 0 0 1 .393-.422.477.477 0 0 0 .458-.492c-.005-.268-.217-.49-.476-.475-.736.015-1.323.646-1.309 1.407.016.876.709 1.577 1.551 1.577h.03c1.002-.02 1.787-.86 1.787-1.914 0-.538-.112-1.008-.316-1.397 2.51.636 4.551 2.645 5.227 5.318a.47.47 0 0 0 .452.362h.214c.81 0 1.469.682 1.469 1.52s-.66 1.52-1.469 1.52z"/>
        <path d="M14.189 12.109c-.873.684-2.006 1.06-3.189 1.06-1.183 0-2.315-.376-3.189-1.06a.542.542 0 0 0-.684.026.375.375 0 0 0 .03.587C8.21 13.546 9.576 14 11 14c1.426 0 2.79-.454 3.842-1.278a.375.375 0 0 0 .031-.587.543.543 0 0 0-.684-.026z"/>
        <circle cx="8.5" cy="7.5" r="1"/>
        <circle cx="12.5" cy="7.5" r="1"/>
    </g>
</svg>
