<svg xmlns="http://www.w3.org/2000/svg" width="24" height="26" viewBox="0 0 24 26">
    <g fill="#4AA5ED" fill-rule="nonzero">
        <path d="M14 16c-.693 0-1.36-.252-1.876-.708l-6.19-5.465a2.738 2.738 0 0 1-.748-3.049A2.81 2.81 0 0 1 7.809 5h12.382a2.81 2.81 0 0 1 2.623 1.778 2.738 2.738 0 0 1-.748 3.049l-6.19 5.465A2.828 2.828 0 0 1 14 16zM7.81 6.513c-.528 0-1 .321-1.189.807a1.241 1.241 0 0 0 .34 1.38l6.19 5.466a1.286 1.286 0 0 0 1.698 0l6.19-5.465c.393-.347.528-.896.34-1.381a1.273 1.273 0 0 0-1.188-.807H7.809z"/>
        <path d="M14.005 26C13.45 26 13 25.639 13 25.194V14.73c.05-.414.482-.73 1-.73s.95.316 1 .73v10.468c-.003.44-.446.798-.995.802z"/>
        <path d="M19.273 26H8.727C8.315 25.95 8 25.518 8 25s.315-.95.727-1h10.546c.412.05.727.482.727 1s-.315.95-.727 1zM6 8.37s3.515-3.083 8.623 0c5.108 3.084 8.377 0 8.377 0L14.278 16 6 8.37z"/>
        <path d="M16.449 12a.445.445 0 0 1-.364-.199.5.5 0 0 1-.062-.428l2.909-9.132a1.79 1.79 0 0 1 .924-1.08 1.639 1.639 0 0 1 1.378-.018l2.532 1.126a.49.49 0 0 1 .199.604.445.445 0 0 1-.548.272l-2.531-1.127a.787.787 0 0 0-.659.01.86.86 0 0 0-.443.515l-2.91 9.134a.454.454 0 0 1-.425.323zM5.472 12h-.071C2.659 11.753.446 9.622.059 6.857-.328 4.09 1.214 1.42 3.78.409 6.346-.603 9.26.312 10.816 2.617c.194.235.24.561.118.842a.795.795 0 0 1-.693.48.792.792 0 0 1-.73-.416 4.308 4.308 0 0 0-5.158-1.619c-1.88.742-3.01 2.7-2.727 4.727.284 2.027 1.907 3.588 3.916 3.77a.804.804 0 0 1 .666.83.801.801 0 0 1-.735.769z"/>
        <path d="M5.538 7.997a.658.658 0 0 1-.418-.156L1.367 4.724c-.24-.16-.383-.465-.366-.787.017-.322.19-.605.447-.73a.648.648 0 0 1 .758.147l2.807 2.328.536-3.892c.018-.32.19-.601.445-.725a.647.647 0 0 1 .755.142c.209.21.297.54.228.85l-.721 5.234c-.058.408-.36.707-.714.709l-.004-.003z"/>
        <path d="M1.765 9c-.324-.004-.611-.192-.72-.472a.673.673 0 0 1 .233-.782l3.399-2.537a.825.825 0 0 1 .799-.17c.28.087.48.313.518.582a.689.689 0 0 1-.343.682l-3.4 2.54A.813.813 0 0 1 1.765 9z"/>
    </g>
</svg>
