<svg xmlns="http://www.w3.org/2000/svg" xmlns:xlink="http://www.w3.org/1999/xlink" width="84" height="89"><defs><path id="b" d="M42.51 2.36l20 11.57A15 15 0 0 1 70 26.912v23.189a15 15 0 0 1-7.49 12.984l-20 11.57a15 15 0 0 1-15.02 0l-20-11.57A15 15 0 0 1 0 50.102V26.913A15 15 0 0 1 7.49 13.93l20-11.569a15 15 0 0 1 15.02 0z"/><filter id="a" width="124.3%" height="121.5%" x="-12.1%" y="-10.8%" filterUnits="objectBoundingBox"><feMorphology in="SourceAlpha" operator="dilate" radius="2.5" result="shadowSpreadOuter1"/><feOffset in="shadowSpreadOuter1" result="shadowOffsetOuter1"/><feGaussianBlur in="shadowOffsetOuter1" result="shadowBlurOuter1" stdDeviation="2"/><feComposite in="shadowBlurOuter1" in2="SourceAlpha" operator="out" result="shadowBlurOuter1"/><feColorMatrix in="shadowBlurOuter1" values="0 0 0 0 0.488919005 0 0 0 0 0.488919005 0 0 0 0 0.488919005 0 0 0 0.5 0"/></filter></defs><g fill="none" fill-rule="evenodd"><g transform="translate(7 6)"><use fill="#000" filter="url(#a)" xlink:href="#b"/><use fill="#19A4D5" stroke="#E0EFFB" stroke-width="5" xlink:href="#b"/></g><path d="M42.002 25.035L42.04 25s-.051.017-.038.035zm13.993 12.196c-.183-3.343-5.986-7.91-9.322-10.054 0 0 .144-2.327-2.446-2.17-1.8.11-2.117.068-2.143.032-.162.15-.94.88-1.343 1.294-.134.006-.27.015-.41.026a16.12 16.12 0 0 0-2.988.714l-.05.029a4.809 4.809 0 0 0-.031.464c-.036 1.427.402 5.253 5.873 6.49a15.152 15.152 0 0 1 1.64.469c.146.052.285.105.42.159 1.47.595 2.243 1.32 2.616 2.013.013-1.759-.142-4.169-.942-6.224 1.368 1.242 3.794 3.633 5.89 6.666 0 0-1.906 2.148-5.435 1.23-1.2-.622-2.319-1.505-2.786-3.116a13.55 13.55 0 0 0-1.571-.45c-3.83-.865-5.378-2.958-6.002-4.561a6.918 6.918 0 0 1-.434-1.814c-.225.568-.123 1.204-.025 1.793.067.41.126.765.063 1.068-.13.63-.497 1.423-.723 1.874.075.061.141.135.198.219.25.373.257.886.23 1.2a1.289 1.289 0 0 1 .481.865c.028.604.24.91.63.91.042 0 .068-.005.07-.005l.018-.002 2.59-.333a.39.39 0 0 1 .304.095s.91.487.91 2.035c0 0-.174 1.555-1.772 1.757-1.598.202-3.058.131-3.708 1.175-.652 1.043-.178 4.833-.829 7.439 0 0-.435 5.784-.968 7.265l2.9.076s1.885-5.298 1.89-9.46c0 0 1.735 3.064 1.314 6.676 0 0-.395 1.777-1.072 2.808.73.29 3.652 1.11 6.442 1.117C44.305 50.58 45 45.057 45 45.057c-.535 5.375.82 10.098 1.376 11.863 1.277-.14 2.607-.48 3.894-1.137 0 0-2.976-4.271-.697-10.078 1.148-2.922 6.608-5.088 6.422-8.474zm-16.071 20.67c-6.02-2.358-10.42.387-11.924 2.802 0 0 7.018.41 13.387 3.333 7.168 3.29 11.3-2.56 8.953-6.697 0 0-4.396 2.92-10.416.562z" fill="#FFF" fill-rule="nonzero"/></g></svg>