<svg xmlns="http://www.w3.org/2000/svg" xmlns:xlink="http://www.w3.org/1999/xlink" width="84" height="89"><defs><path id="b" d="M42.51 2.36l20 11.57A15 15 0 0 1 70 26.912v23.189a15 15 0 0 1-7.49 12.984l-20 11.57a15 15 0 0 1-15.02 0l-20-11.57A15 15 0 0 1 0 50.102V26.913A15 15 0 0 1 7.49 13.93l20-11.569a15 15 0 0 1 15.02 0z"/><filter id="a" width="124.3%" height="121.5%" x="-12.1%" y="-10.8%" filterUnits="objectBoundingBox"><feMorphology in="SourceAlpha" operator="dilate" radius="2.5" result="shadowSpreadOuter1"/><feOffset in="shadowSpreadOuter1" result="shadowOffsetOuter1"/><feGaussianBlur in="shadowOffsetOuter1" result="shadowBlurOuter1" stdDeviation="2"/><feComposite in="shadowBlurOuter1" in2="SourceAlpha" operator="out" result="shadowBlurOuter1"/><feColorMatrix in="shadowBlurOuter1" values="0 0 0 0 0.488919005 0 0 0 0 0.488919005 0 0 0 0 0.488919005 0 0 0 0.5 0"/></filter></defs><g fill="none" fill-rule="evenodd"><g transform="translate(7 6)"><use fill="#000" filter="url(#a)" xlink:href="#b"/><use fill="#F7BE1D" stroke="#FBEEE0" stroke-width="5" xlink:href="#b"/></g><path d="M58.223 34.407H47.975v-3.965H37.027v3.965H26.778c-.7 0-1.267.56-1.267 1.253v7.513h33.977V35.66c0-.692-.566-1.253-1.265-1.253zM38.927 32.32h7.147v2.087h-7.147V32.32zM57.59 44.218H44.675v3.757h-4.352v-3.757H27.41c-.7 0-1.267.56-1.267 1.252v12.836c0 .69.567 1.252 1.267 1.252h30.178c.7 0 1.266-.561 1.266-1.252V45.47c0-.692-.566-1.252-1.266-1.252z" fill="#FFF" fill-rule="nonzero"/></g></svg>