<svg xmlns="http://www.w3.org/2000/svg" xmlns:xlink="http://www.w3.org/1999/xlink" width="84" height="89"><defs><path id="b" d="M42.51 2.36l20 11.57A15 15 0 0 1 70 26.912v23.189a15 15 0 0 1-7.49 12.984l-20 11.57a15 15 0 0 1-15.02 0l-20-11.57A15 15 0 0 1 0 50.102V26.913A15 15 0 0 1 7.49 13.93l20-11.569a15 15 0 0 1 15.02 0z"/><filter id="a" width="124.3%" height="121.5%" x="-12.1%" y="-10.8%" filterUnits="objectBoundingBox"><feMorphology in="SourceAlpha" operator="dilate" radius="2.5" result="shadowSpreadOuter1"/><feOffset in="shadowSpreadOuter1" result="shadowOffsetOuter1"/><feGaussianBlur in="shadowOffsetOuter1" result="shadowBlurOuter1" stdDeviation="2"/><feComposite in="shadowBlurOuter1" in2="SourceAlpha" operator="out" result="shadowBlurOuter1"/><feColorMatrix in="shadowBlurOuter1" values="0 0 0 0 0.488919005 0 0 0 0 0.488919005 0 0 0 0 0.488919005 0 0 0 0.5 0"/></filter></defs><g fill="none" fill-rule="evenodd"><g transform="translate(7 6)"><use fill="#000" filter="url(#a)" xlink:href="#b"/><use fill="#FFB334" stroke="#FBEEE0" stroke-width="5" xlink:href="#b"/></g><path d="M60.613 41.694h.885c.593 0 1.073-.48 1.073-1.071V38.4c0-.592-.48-1.072-1.073-1.072a3.454 3.454 0 0 0-.63-.99c-1.154-1.26-2.682-.938-2.977-1.768-.295-.83.804-1.192.804-2.37a2.948 2.948 0 0 0-2.682-2.786 2.948 2.948 0 0 0-2.682 2.812c0 1.152 1.086 1.607.818 2.317-.268.71-1.877.522-3.017 1.687a3.56 3.56 0 0 0-.738 1.098c-.592 0-1.073.48-1.073 1.072v2.223c0 .591.48 1.071 1.073 1.071h.885a4.258 4.258 0 0 0-2.387 3.803v12.187c0 1.183.961 2.142 2.146 2.142h9.803A2.147 2.147 0 0 0 63 57.684V45.497a4.258 4.258 0 0 0-2.387-3.803zm.201 16.003h-9.776V46.354a4.275 4.275 0 0 1 4.278-4.272h1.22a4.275 4.275 0 0 1 4.278 4.272v11.343zM45.687 44.453a.55.55 0 0 0-.456.08 17.45 17.45 0 0 1-6.852 2.303c-2.28.241-2.682-.214-2.843-.415-.684-1.017 1.448-2.53 1.34-4.767a5.83 5.83 0 0 0-5.524-5.035 5.86 5.86 0 0 0-5.78 4.312 7.142 7.142 0 0 1-3.58.897.658.658 0 0 0-.31.134c-.402.335-.308 1.205 0 1.754.16.248.376.455.631.603a11.36 11.36 0 0 0 4.251.977c.383.228.652.608.738 1.045.094 1.004-1.449 1.567-2.24 2.571-1.502 1.875-.67 5.517.496 7.272 3.179 4.767 15.194 5.356 19.526-1.098 2.682-4.018 1.26-9.16.898-10.339a.536.536 0 0 0-.295-.294zm-16.213-1.634a1.5 1.5 0 1 1 0-3.002 1.5 1.5 0 0 1 0 3.002z" fill="#FFF" fill-rule="nonzero"/></g></svg>