<svg xmlns="http://www.w3.org/2000/svg" width="28" height="24" viewBox="0 0 28 24">
    <g fill="#4AA5ED" fill-rule="nonzero">
        <path stroke="#45A4F0" stroke-width=".5" d="M24.99 1H3.01A2.02 2.02 0 0 0 1 3.025v9.95c0 1.117.9 2.023 2.01 2.025h21.98A2.02 2.02 0 0 0 27 12.975v-9.95A2.02 2.02 0 0 0 24.99 1zm-20.276.936h18.572V3.8H4.714V1.936zm0 2.796h18.572V6.6H4.714V4.732zm0 2.8h18.572V9.4H4.714V7.532zm21.359 5.443c0 .601-.485 1.089-1.084 1.089H3.011a1.086 1.086 0 0 1-1.084-1.089v-9.95c0-.29.113-.567.316-.771.204-.205.48-.319.768-.318h.775v7.93c0 .257.208.466.464.466h19.5a.465.465 0 0 0 .464-.466v-7.93h.775c.288 0 .564.113.768.318.203.204.317.482.316.77v9.951z"/>
        <path d="M9.941 17.42a.455.455 0 0 0-.628-.183l-1.349.813V16.5c0-.276-.21-.5-.47-.5s-.47.224-.47.5v1.55l-1.318-.817a.457.457 0 0 0-.643.184.518.518 0 0 0 .173.684l1.318.817-1.318.817A.507.507 0 0 0 5 20.17c0 .179.09.344.235.434.146.09.325.09.471 0l1.318-.816V21.5c0 .276.21.5.47.5s.47-.224.47-.5v-1.713l1.318.817c.146.09.326.089.472 0a.508.508 0 0 0 .235-.435.507.507 0 0 0-.237-.434l-1.317-.817 1.317-.817a.495.495 0 0 0 .229-.299.528.528 0 0 0-.04-.383zM22.942 17.42a.46.46 0 0 0-.628-.183l-1.35.817V16.5c0-.276-.21-.5-.47-.5-.259 0-.47.224-.47.5v1.55l-1.318-.817a.447.447 0 0 0-.47 0 .508.508 0 0 0-.236.435c0 .179.09.344.236.433l1.318.817-1.318.817a.507.507 0 0 0-.236.434c0 .179.09.344.235.434.146.09.325.09.471 0l1.319-.816V21.5c0 .276.21.5.47.5s.47-.224.47-.5v-1.713l1.318.817a.46.46 0 0 0 .61-.204.524.524 0 0 0-.136-.665l-1.318-.817 1.318-.817a.521.521 0 0 0 .185-.682zM15.952 20.253a.494.494 0 0 0-.62-.152l-1.344.683v-1.366c0-.231-.21-.418-.467-.418-.258 0-.467.187-.467.418v1.366l-1.31-.683a.519.519 0 0 0-.495-.029.416.416 0 0 0-.249.384c.005.16.111.303.273.37l1.31.684-1.31.683a.39.39 0 0 0-.077.512.497.497 0 0 0 .535.194l1.31-.683v1.366c0 .231.209.418.467.418s.467-.187.467-.418v-1.366l1.309.683c.224.116.51.047.64-.154.128-.2.051-.456-.173-.572l-1.31-.683 1.31-.683c.224-.105.313-.351.2-.554zM4.997 11c-.198.006-.39.063-.558.168l-.15.123c-.044.05-.085.102-.123.156a.967.967 0 0 0-.09.168.912.912 0 0 0-.072.206 1.12 1.12 0 0 0 0 .196A.999.999 0 1 0 4.985 11h.012z"/>
    </g>
</svg>
