<svg xmlns="http://www.w3.org/2000/svg" width="48" height="48"><path fill="#DD4343" fill-rule="evenodd" d="M47.953 22.172a.465.465 0 0 1 .047.21V45c0 .844-.297 1.555-.89 2.133-.594.578-1.297.867-2.11.867H3c-.813 0-1.516-.29-2.11-.867C.298 46.555 0 45.843 0 45V22.547c0-.531.125-1.016.375-1.453a3.26 3.26 0 0 1 .984-1.078L9 12.375V7.453c0-.406.148-.758.445-1.055a1.442 1.442 0 0 1 1.055-.445h4.969l5.437-4.687C21.75.422 22.812 0 24.094 0c1.281 0 2.343.422 3.187 1.266l5.485 4.687H37.5c.406 0 .758.149 1.055.445.297.297.445.649.445 1.055v4.828l7.828 7.875.281.282c.094.093.172.187.235.28l.047.048c.156.187.28.406.375.656.093.25.156.5.187.75zM12.61 34.032L3 25.546v17.39l9.61-8.906zm2.907 1.406L5.156 45h37.828l-18-16.313a2.05 2.05 0 0 0-.492-.257 1.748 1.748 0 0 0-.633-.117c-.218 0-.43.039-.632.117-.204.078-.383.18-.54.304l-6.468 6a1.532 1.532 0 0 1-.094.164.768.768 0 0 1-.094.118 3.195 3.195 0 0 1-.515.422zm20.015-1.22L45 42.75V25.828l-9.469 8.39zm6.563-14.671L39 16.453v10.688l5.625-5.016-2.578-2.578h.047zM23.016 3.375l-3 2.578h8.156l-3-2.578a2.136 2.136 0 0 0-.516-.305 1.453 1.453 0 0 0-.562-.117c-.188 0-.375.04-.563.117-.187.078-.36.18-.515.305zM36 8.953H12v20.531l2.813 2.485 5.953-5.532c.937-.75 1.976-1.117 3.117-1.101 1.14.016 2.148.367 3.023 1.055l6.422 5.812L36 29.813V8.953zM4.875 20.766h-.094l-1.265 1.218L9 26.812v-10.17l-4.125 4.125z"/></svg>