<svg xmlns="http://www.w3.org/2000/svg" width="36" height="48"><path fill="#DD4343" fill-rule="evenodd" d="M18.188 0C21 0 23.515.484 25.733 1.453c2.22.969 4.086 2.29 5.602 3.961 1.516 1.672 2.672 3.617 3.469 5.836.797 2.219 1.195 4.562 1.195 7.031 0 2.5-.492 5.055-1.477 7.664a48.274 48.274 0 0 1-3.726 7.688 70.122 70.122 0 0 1-4.875 7.148c-1.75 2.25-3.39 4.25-4.922 6 0 .032-.234.242-.703.633a2.485 2.485 0 0 1-1.64.586h-.141c-.657 0-1.211-.195-1.664-.586-.454-.39-.68-.602-.68-.633a971.584 971.584 0 0 1-5.274-6.14 69.97 69.97 0 0 1-5.25-7.008 45.926 45.926 0 0 1-4.03-7.57C.538 23.468 0 20.875 0 18.28c0-2.469.484-4.812 1.453-7.031a19.027 19.027 0 0 1 3.938-5.836 18.612 18.612 0 0 1 5.789-3.96C13.383.483 15.719 0 18.188 0zm.562 44.766c2.375-2.72 4.453-5.313 6.234-7.782 1.782-2.468 3.266-4.804 4.453-7.007 1.188-2.204 2.079-4.282 2.672-6.235.594-1.953.891-3.773.891-5.46 0-1.907-.29-3.774-.867-5.602a14.041 14.041 0 0 0-2.696-4.899C28.22 6.344 26.68 5.188 24.82 4.313 22.96 3.437 20.75 3 18.187 3a14.37 14.37 0 0 0-5.859 1.219A15.52 15.52 0 0 0 7.5 7.523a15.938 15.938 0 0 0-3.281 4.875A14.534 14.534 0 0 0 3 18.281c0 2.219.469 4.469 1.406 6.75a40.446 40.446 0 0 0 3.563 6.727 65.956 65.956 0 0 0 4.734 6.375 652.019 652.019 0 0 0 4.875 5.742l.797.89.188.188a.768.768 0 0 1 .117-.094c.047-.03.07-.062.07-.093zm-.703-35.72c2.5 0 4.625.884 6.375 2.65 1.75 1.765 2.625 3.882 2.625 6.35 0 2.5-.875 4.626-2.625 6.376s-3.875 2.625-6.375 2.625c-2.469 0-4.586-.875-6.352-2.625-1.765-1.75-2.648-3.875-2.648-6.375 0-2.469.883-4.586 2.648-6.352 1.766-1.765 3.883-2.648 6.352-2.648zm0 15c1.656 0 3.062-.593 4.219-1.78C23.422 21.078 24 19.656 24 18c0-1.656-.586-3.07-1.758-4.242C21.07 12.586 19.656 12 18 12c-1.656 0-3.07.586-4.242 1.758C12.586 14.93 12 16.344 12 18c0 1.656.594 3.078 1.781 4.266 1.188 1.187 2.61 1.78 4.266 1.78z"/></svg>