<svg xmlns="http://www.w3.org/2000/svg" width="28" height="48"><path fill="#DD4343" fill-rule="evenodd" d="M23 0c1.25 0 2.313.437 3.188 1.313.875.875 1.312 1.937 1.312 3.187v39c0 1.25-.438 2.312-1.313 3.188C25.313 47.563 24.25 48 23 48H5c-1.25 0-2.313-.437-3.188-1.313C.938 45.813.5 44.75.5 43.5v-39c0-1.25.438-2.312 1.313-3.188C2.688.438 3.75 0 5 0h18zm1.5 43.5v-39c0-.406-.148-.758-.445-1.055A1.442 1.442 0 0 0 23 3H5c-.406 0-.758.148-1.055.445A1.442 1.442 0 0 0 3.5 4.5v39c0 .406.148.758.445 1.055.297.297.649.445 1.055.445h18c.406 0 .758-.148 1.055-.445.297-.297.445-.649.445-1.055zm-10.5-6c.844 0 1.555.297 2.133.89.578.594.867 1.297.867 2.11s-.29 1.516-.867 2.11c-.578.593-1.29.89-2.133.89-.813 0-1.516-.297-2.11-.89-.593-.594-.89-1.297-.89-2.11s.297-1.516.89-2.11c.594-.593 1.297-.89 2.11-.89zm3-33c.406 0 .758.148 1.055.445.297.297.445.649.445 1.055 0 .406-.148.758-.445 1.055A1.442 1.442 0 0 1 17 7.5h-6c-.406 0-.758-.148-1.055-.445A1.442 1.442 0 0 1 9.5 6c0-.406.148-.758.445-1.055A1.442 1.442 0 0 1 11 4.5h6z"/></svg>