<svg xmlns="http://www.w3.org/2000/svg" xmlns:xlink="http://www.w3.org/1999/xlink" width="84" height="89"><defs><path id="b" d="M42.51 2.36l20 11.57A15 15 0 0 1 70 26.912v23.189a15 15 0 0 1-7.49 12.984l-20 11.57a15 15 0 0 1-15.02 0l-20-11.57A15 15 0 0 1 0 50.102V26.913A15 15 0 0 1 7.49 13.93l20-11.569a15 15 0 0 1 15.02 0z"/><filter id="a" width="124.3%" height="121.5%" x="-12.1%" y="-10.8%" filterUnits="objectBoundingBox"><feMorphology in="SourceAlpha" operator="dilate" radius="2.5" result="shadowSpreadOuter1"/><feOffset in="shadowSpreadOuter1" result="shadowOffsetOuter1"/><feGaussianBlur in="shadowOffsetOuter1" result="shadowBlurOuter1" stdDeviation="2"/><feComposite in="shadowBlurOuter1" in2="SourceAlpha" operator="out" result="shadowBlurOuter1"/><feColorMatrix in="shadowBlurOuter1" values="0 0 0 0 0.488919005 0 0 0 0 0.488919005 0 0 0 0 0.488919005 0 0 0 0.5 0"/></filter></defs><g fill="none" fill-rule="evenodd"><g transform="translate(7 6)"><use fill="#000" filter="url(#a)" xlink:href="#b"/><use fill="#19A4D5" stroke="#E0EFFB" stroke-width="5" xlink:href="#b"/></g><path fill="#FFF" d="M38.533 26h8.5l2.692 10.714H35.842L38.533 26zM51 46v7.714H34V46h4.533c0-1.286 1.134-2.429 2.692-2.857V38.57h2.692v4.572c1.416.428 2.55 1.571 2.55 2.857H51zm-2.125 17.429V65h-1.558v-1.571h-9.634V65h-1.558v-1.571H34v-7.715h17v7.715h-2.125zm-13.317-1.572h13.884v-4.571H35.558v4.571zm13.884-14.286H35.558v4.572h13.884V47.57z"/></g></svg>