<svg xmlns="http://www.w3.org/2000/svg" width="19" height="15"><g fill="#BDBDBD"><ellipse cx="5.067" cy="2.5" rx="2.533" ry="2.5"/><path d="M18.77 5.069a.757.757 0 0 0 0-1.086.734.734 0 0 0-1.072 0L15.706 6h-3.678l-1.992-2.017a.734.734 0 0 0-1.072 0L6.972 6H3.294L1.302 3.983a.734.734 0 0 0-1.072 0 .757.757 0 0 0 0 1.086l2.86 2.897v6.258a.79.79 0 0 0 .766.776.79.79 0 0 0 .766-.776v-2.327c0-.31.205-.518.511-.518.307 0 .51.207.51.518v2.327A.79.79 0 0 0 6.41 15a.79.79 0 0 0 .766-.776v-6.31l2.35-2.276 2.298 2.328-1.532 4.81h1.532v1.448a.79.79 0 0 0 .766.776.79.79 0 0 0 .766-.776v-1.448h1.022v1.448a.79.79 0 0 0 .766.776.79.79 0 0 0 .766-.776v-1.448h1.532l-1.532-4.81 2.86-2.897z"/><ellipse cx="13.933" cy="2.5" rx="2.533" ry="2.5"/></g></svg>