<svg xmlns="http://www.w3.org/2000/svg" width="15" height="16"><path fill="#4094D6" fill-rule="evenodd" d="M7.5.938c1.035 0 2.01.195 2.922.585.913.391 1.71.926 2.388 1.604a7.526 7.526 0 0 1 1.604 2.388c.39.913.586 1.887.586 2.923a7.343 7.343 0 0 1-.586 2.922 7.526 7.526 0 0 1-1.604 2.388 7.526 7.526 0 0 1-2.388 1.604 7.351 7.351 0 0 1-2.922.585 7.351 7.351 0 0 1-2.922-.585 7.526 7.526 0 0 1-2.388-1.604A7.526 7.526 0 0 1 .586 11.36 7.351 7.351 0 0 1 0 8.438c0-1.036.195-2.01.586-2.923A7.526 7.526 0 0 1 2.19 3.127a7.526 7.526 0 0 1 2.388-1.604A7.351 7.351 0 0 1 7.5.938zm0 14.077a6.33 6.33 0 0 0 2.556-.52 6.623 6.623 0 0 0 2.08-1.414 6.776 6.776 0 0 0 1.406-2.087 6.33 6.33 0 0 0 .52-2.556 6.33 6.33 0 0 0-.52-2.557 6.685 6.685 0 0 0-1.406-2.08 6.685 6.685 0 0 0-2.08-1.406 6.33 6.33 0 0 0-2.556-.52 6.33 6.33 0 0 0-2.556.52 6.685 6.685 0 0 0-2.08 1.406 6.685 6.685 0 0 0-1.406 2.08 6.33 6.33 0 0 0-.52 2.556c0 .909.173 1.76.52 2.557a6.776 6.776 0 0 0 1.406 2.087 6.623 6.623 0 0 0 2.08 1.414 6.33 6.33 0 0 0 2.556.52zm2.988-9.317a.463.463 0 0 1 .674 0 .447.447 0 0 1 .132.33.447.447 0 0 1-.132.33L6.49 11.06l-.029.029-.03.03a.425.425 0 0 1-.329.146.425.425 0 0 1-.33-.147l-2.33-2.314a.447.447 0 0 1-.131-.33c0-.132.043-.242.131-.33a.463.463 0 0 1 .674 0l1.978 1.978 4.394-4.424z"/></svg>