<svg xmlns="http://www.w3.org/2000/svg" xmlns:xlink="http://www.w3.org/1999/xlink" width="84" height="89"><defs><path id="b" d="M42.51 2.36l20 11.57A15 15 0 0 1 70 26.912v23.189a15 15 0 0 1-7.49 12.984l-20 11.57a15 15 0 0 1-15.02 0l-20-11.57A15 15 0 0 1 0 50.102V26.913A15 15 0 0 1 7.49 13.93l20-11.569a15 15 0 0 1 15.02 0z"/><filter id="a" width="124.3%" height="121.5%" x="-12.1%" y="-10.8%" filterUnits="objectBoundingBox"><feMorphology in="SourceAlpha" operator="dilate" radius="2.5" result="shadowSpreadOuter1"/><feOffset in="shadowSpreadOuter1" result="shadowOffsetOuter1"/><feGaussianBlur in="shadowOffsetOuter1" result="shadowBlurOuter1" stdDeviation="2"/><feComposite in="shadowBlurOuter1" in2="SourceAlpha" operator="out" result="shadowBlurOuter1"/><feColorMatrix in="shadowBlurOuter1" values="0 0 0 0 0.488919005 0 0 0 0 0.488919005 0 0 0 0 0.488919005 0 0 0 0.5 0"/></filter></defs><g fill="none" fill-rule="evenodd"><g transform="translate(7 6)"><use fill="#000" filter="url(#a)" xlink:href="#b"/><use fill="#4094D6" stroke="#E0EFFB" stroke-width="5" xlink:href="#b"/></g><path fill="#FFF" fill-rule="nonzero" d="M39.978 59.882l-.02.02v.153l.02.02v.038l.058.154.039.02.039.077.078.077.02.039h.019l.058.057.039.02.02.019.233.154.058.02.058.038.447.135.37.058.7.019.136-.02h.078l.72-.192.096-.058h.02l.02-.02.233-.134.233-.231.02-.039.019-.02.02-.057.038-.058v-.077l.02-.039v-.154l-.02-.038v-.039l-.097-.193-.039-.019-.058-.058-.175-.096-.253-.058h-.078v.039l.175.154.04.058.019.019v.02l.038.057.04.02v.192h-.02l-.078.058-.02.02h-.019l-.02.018-.252.078h-.02l-.019.019h-.02l-.058.02h-.039l-.272.057h-.097l-.078.02h-.058c-.195.025-.35.031-.467.018a.181.181 0 0 1-.116 0l-.623-.038-.155-.039h-.059l-.33-.096-.039-.02h-.02l-.019-.019h-.039l-.02-.038-.096-.039v-.038l-.02-.02v-.019h-.02v-.038l.02-.058.02-.02v-.038l.019-.058.272-.27h-.116l-.175.02-.292.173-.078.096-.02.097-.019.02-.02.038v.019zm.505-15.923v-4.24c0-.58-.298-.868-.894-.868h-8.964c-.233 0-.421.051-.564.154v.02h-.02a.532.532 0 0 0-.135.153v-.019l-1.77 2.468a.344.344 0 0 0-.058.212c0 .077.02.147.058.212l1.77 2.467c.038.064.09.116.155.154h-.02c.156.103.35.155.584.155h8.964c.596 0 .894-.29.894-.868zm2.198-13.995a.737.737 0 0 0-.234-.54.784.784 0 0 0-.544-.212.829.829 0 0 0-.545.193c0 .013-.006.026-.02.038a.747.747 0 0 0-.213.52v29.823l.058.019.623.02a.098.098 0 0 0 .116 0c.117.012.272.012.467 0h.058l.078-.02h.097l.059-.02v-29.82zm11.025 2.101c-.143-.103-.331-.154-.564-.154h-8.964c-.597 0-.895.289-.895.867v4.241c0 .579.298.868.895.868h8.964c.233 0 .427-.052.583-.154h-.02a.445.445 0 0 0 .156-.155l1.77-2.467a.402.402 0 0 0 .058-.212c0-.09-.02-.16-.058-.212l-1.77-2.468v.02a.532.532 0 0 0-.136-.155h-.02v-.019z"/></g></svg>