<svg xmlns="http://www.w3.org/2000/svg" xmlns:xlink="http://www.w3.org/1999/xlink" width="84" height="89"><defs><path id="b" d="M42.51 2.36l20 11.57A15 15 0 0 1 70 26.912v23.189a15 15 0 0 1-7.49 12.984l-20 11.57a15 15 0 0 1-15.02 0l-20-11.57A15 15 0 0 1 0 50.102V26.913A15 15 0 0 1 7.49 13.93l20-11.569a15 15 0 0 1 15.02 0z"/><filter id="a" width="124.3%" height="121.5%" x="-12.1%" y="-10.8%" filterUnits="objectBoundingBox"><feMorphology in="SourceAlpha" operator="dilate" radius="2.5" result="shadowSpreadOuter1"/><feOffset in="shadowSpreadOuter1" result="shadowOffsetOuter1"/><feGaussianBlur in="shadowOffsetOuter1" result="shadowBlurOuter1" stdDeviation="2"/><feComposite in="shadowBlurOuter1" in2="SourceAlpha" operator="out" result="shadowBlurOuter1"/><feColorMatrix in="shadowBlurOuter1" values="0 0 0 0 0.488919005 0 0 0 0 0.488919005 0 0 0 0 0.488919005 0 0 0 0.5 0"/></filter></defs><g fill="none" fill-rule="evenodd"><g transform="translate(7 6)"><use fill="#000" filter="url(#a)" xlink:href="#b"/><use fill="#E44273" stroke="#FBE0E0" stroke-width="5" xlink:href="#b"/></g><path d="M38.765 34.339c0-2.546-1.432-6.339-3.883-6.339C32.432 28 31 31.793 31 34.339c0 2.132 1.007 3.922 2.773 4.448v11.688h-1.11v1.489c0 1.692-.16 3.38-.48 5.04a4.164 4.164 0 0 0-.074.78c0 1.207.529 2.35 1.437 3.105L34.882 62l1.337-1.111a4.037 4.037 0 0 0 1.436-3.106 4.13 4.13 0 0 0-.074-.78 26.612 26.612 0 0 1-.48-5.04v-1.488h-1.11V38.787c1.767-.526 2.774-2.316 2.774-4.448zm-3.328 25.356h-1.11v-1.153h1.11v1.153zm-2.773-25.356c0-1.857.932-4.61 2.218-4.61v1.152c-.292.13-1.109 1.757-1.109 3.458 0 1.729.835 1.729 1.11 1.729v1.152c-1.39 0-2.22-1.077-2.22-2.881zm19.186-.162a4.03 4.03 0 0 1-.47 1.89h-.68V28h-1.151v8.068h-1.15V28h-1.15v8.068h-1.151V28h-1.15v8.068h-.681a4.035 4.035 0 0 1-.47-1.89V28h-1.15v6.177c0 1.738.862 3.351 2.305 4.315l1.547 1.033h.174v10.95h-1.15v1.489c0 1.692-.167 3.38-.498 5.04a3.98 3.98 0 0 0 1.413 3.885L47.823 62l1.386-1.111a3.98 3.98 0 0 0 1.412-3.885 25.745 25.745 0 0 1-.498-5.04v-1.49h-1.15V39.526h.174l1.547-1.033A5.178 5.178 0 0 0 53 34.177V28h-1.15v6.177zm-3.451 25.518h-1.15v-1.153h1.15v1.153z" fill="#FFF" fill-rule="nonzero"/></g></svg>