<svg xmlns="http://www.w3.org/2000/svg" width="13" height="14" viewBox="0 0 13 14">
    <path fill="#FFB334" fill-rule="evenodd" d="M9.643 8.25a.54.54 0 0 1-.536.536H3.75a.54.54 0 0 1-.536-.536.54.54 0 0 1 .536-.536h5.357a.54.54 0 0 1 .536.536zM5.357 4.5c0 .594-.477 1.071-1.071 1.071A1.068 1.068 0 0 1 3.214 4.5c0-.594.477-1.071 1.072-1.071.594 0 1.071.477 1.071 1.071zm4.286 0c0 .594-.477 1.071-1.072 1.071A1.068 1.068 0 0 1 7.5 4.5c0-.594.477-1.071 1.071-1.071.595 0 1.072.477 1.072 1.071zm2.143 2.143a5.362 5.362 0 0 0-5.357-5.357A5.362 5.362 0 0 0 1.07 6.643 5.362 5.362 0 0 0 6.43 12a5.362 5.362 0 0 0 5.357-5.357zm1.071 0A6.43 6.43 0 0 1 6.43 13.07 6.43 6.43 0 0 1 0 6.643 6.43 6.43 0 0 1 6.429.214a6.43 6.43 0 0 1 6.428 6.429z"/>
</svg>
