<svg xmlns="http://www.w3.org/2000/svg" width="35" height="34" viewBox="0 0 35 34">
    <path fill="#4AA5ED" fill-rule="nonzero" stroke="#4AA5ED" stroke-width=".3" d="M10.677 14.66C9.83 11.564 8.344 9.993 6.26 9.993c-.387 0-.798.056-1.221.167l-.337.089c-1.198.314-2.274 1.189-2.95 2.4-.741 1.325-.914 2.917-.478 4.506l2.494 7.68c.512 1.87 2.249 3.177 4.224 3.177.382 0 .764-.05 1.135-.147l.59-.155a4.339 4.339 0 0 0 2.657-1.997c.585-.991.74-2.146.437-3.253l-2.134-7.798zm.709 10.494a3.206 3.206 0 0 1-1.964 1.476l-.59.154a3.31 3.31 0 0 1-.84.11 3.236 3.236 0 0 1-3.13-2.374l-2.494-7.68c-.351-1.285-.215-2.583.384-3.655.52-.93 1.36-1.625 2.245-1.857l.337-.088c.327-.086.638-.13.925-.13 1.524 0 2.609 1.256 3.316 3.84l2.133 7.8c.225.817.11 1.671-.322 2.404zm-1.551-7.95l-1.103.29c-.37-1.353-1.612-2.205-2.773-1.901-.546.143-.997.524-1.27 1.073-.286.576-.343 1.261-.16 1.93l-1.102.29c-.254-.93-.17-1.892.236-2.71.33-.663.84-1.166 1.465-1.464l-.507-1.855 1.102-.29.508 1.857c1.583-.105 3.127 1.04 3.604 2.78zm9.67 1.871c1.976 0 3.713-1.306 4.218-3.153l2.509-7.728c.428-1.565.256-3.157-.485-4.483-.677-1.21-1.753-2.085-2.95-2.4l-.338-.088a4.836 4.836 0 0 0-1.22-.167c-2.085 0-3.571 1.57-4.419 4.668l-2.134 7.8c-.624 2.283.764 4.638 3.095 5.25l.589.154c.371.098.753.147 1.136.147zm-1.429-1.381c-1.723-.452-2.749-2.193-2.287-3.88l2.134-7.8c.706-2.584 1.791-3.84 3.315-3.84.287 0 .598.043.925.129l.337.088c.886.233 1.724.927 2.245 1.857.599 1.072.736 2.37.39 3.631l-2.508 7.729c-.378 1.383-1.662 2.349-3.122 2.349-.282 0-.565-.037-.84-.11l-.589-.153zm.69-9.136l-1.102-.29a3.888 3.888 0 0 1 1.588-2.23 3.234 3.234 0 0 1 2.016-.551l.508-1.855 1.103.29-.509 1.855c1.426.685 2.178 2.433 1.702 4.173l-1.103-.29c.37-1.352-.271-2.7-1.43-3.004-.547-.143-1.132-.034-1.648.308a2.768 2.768 0 0 0-1.124 1.594zM8.6 31.308c0 .326-.27.591-.605.591a.598.598 0 0 1-.604-.591c0-.328.27-.593.604-.593.334 0 .605.265.605.593zm-6.39 1.1c0 .327-.271.592-.605.592A.598.598 0 0 1 1 32.408c0-.327.27-.592.605-.592.334 0 .604.265.604.592zm11.932-3.771a.599.599 0 0 1-.605-.593c0-.327.27-.592.605-.592.334 0 .605.265.605.592 0 .328-.27.593-.605.593zm5.48 3.569a.599.599 0 0 1-.605.592.599.599 0 0 1-.604-.592c0-.327.27-.592.604-.592.334 0 .605.265.605.592zM17.629 20.83a.599.599 0 0 1-.604.592.599.599 0 0 1-.605-.592c0-.327.27-.592.605-.592.334 0 .604.265.604.592zm1.545 3.152c.334 0 .604.266.604.593 0 .327-.27.592-.604.592a.598.598 0 0 1-.605-.592c0-.327.27-.593.605-.593zM3.175 26.873c0 .327-.27.593-.604.593a.599.599 0 0 1-.605-.593c0-.327.27-.592.605-.592.334 0 .604.265.604.592zm9.95-12.398a.599.599 0 0 1-.605-.592c0-.327.27-.592.605-.592.334 0 .604.265.604.592a.599.599 0 0 1-.604.592zm-.547-6.007c0-.327.27-.592.605-.592.334 0 .604.265.604.592 0 .327-.27.592-.604.592a.599.599 0 0 1-.605-.592zM1.966 7.175c0-.326.27-.592.605-.592.334 0 .604.265.604.592 0 .328-.27.593-.604.593a.599.599 0 0 1-.605-.593zm6.03-1.696c0-.327.27-.592.604-.592.335 0 .605.265.605.592 0 .327-.27.592-.605.592a.599.599 0 0 1-.604-.592zm2.768-2.843c0-.327.27-.592.605-.592.334 0 .604.265.604.592 0 .327-.27.592-.604.592a.599.599 0 0 1-.605-.592zM1.966 1.592c0-.327.27-.592.605-.592.334 0 .604.265.604.592 0 .327-.27.592-.604.592a.599.599 0 0 1-.605-.592zM27.398 9.96c0-.327.271-.592.605-.592.334 0 .605.265.605.592 0 .327-.271.592-.605.592a.599.599 0 0 1-.605-.592zm3.587-2.973c0-.326.27-.592.605-.592.334 0 .605.265.605.592a.599.599 0 0 1-.605.593.599.599 0 0 1-.605-.593zm1.47 5.055c.333 0 .604.265.604.592a.599.599 0 0 1-.605.593.599.599 0 0 1-.605-.593c0-.327.271-.592.605-.592zm-.865-9.857c0-.326.27-.592.605-.592.333 0 .604.265.604.592 0 .328-.27.593-.604.593a.599.599 0 0 1-.605-.593zm-.682 20.43H34v1.119h-3.092v-1.119zm0-5.123H34v1.118h-3.092v-1.118zm0 10.247H34v1.118h-3.092v-1.118zm-3.51 2.498H34v1.118h-6.602v-1.118zM34 15.019v1.119h-6.153c-.502 0-.91.4-.91.891 0 .492.408.892.91.892h.76c1.132 0 2.053.902 2.053 2.01 0 1.109-.92 2.01-2.052 2.01h-4.46c-.603 0-1.092.48-1.092 1.069 0 .59.49 1.07 1.091 1.07h3.806c1.131 0 2.052.9 2.052 2.01 0 1.108-.92 2.01-2.052 2.01h-5.99c-.602 0-1.091.479-1.091 1.068 0 .59.49 1.07 1.092 1.07h3.93v1.117h-3.93c-1.232 0-2.234-.981-2.234-2.187s1.002-2.187 2.234-2.187h5.989c.502 0 .91-.4.91-.892a.902.902 0 0 0-.91-.892h-3.806c-1.231 0-2.233-.981-2.233-2.187s1.002-2.187 2.233-2.187h4.46c.503 0 .911-.4.911-.892a.902.902 0 0 0-.91-.892h-.762c-1.13 0-2.051-.901-2.051-2.01 0-1.108.92-2.01 2.051-2.01H34z"/>
</svg>
