<svg xmlns="http://www.w3.org/2000/svg" width="20" height="20" viewBox="0 0 20 20">
    <path fill="#47A0E6" fill-rule="evenodd" d="M18.223 1.25c-.156 0-.378.042-.664.127-.287.085-.586.283-.898.596l-4.512 4.511-.567-.039a122.12 122.12 0 0 1-2.197-.127c-.905-.058-1.794-.12-2.666-.185l-2.324-.147a46.112 46.112 0 0 0-1.192-.068h-.039a.164.164 0 0 0-.058.019.315.315 0 0 0-.078.059 11.27 11.27 0 0 0-.918.82c.299.118.676.261 1.133.43.455.17.93.345 1.425.527l1.455.538 1.241.459 1.836.664-1.387 1.386-2.461 2.539-.352.352-.507.019H4.082c-.221 0-.462-.002-.722-.009-.261-.007-.515-.01-.762-.01h-.937c-.014 0-.023-.01-.03-.029-.007-.02-.016-.03-.029-.03a166.398 166.398 0 0 0 2.637 1.641l.254.176.175.254c.104.169.306.495.606.976.299.482.579.925.84 1.328a2.216 2.216 0 0 0 .156.274c.013 0 .003-.003-.029-.01-.033-.006-.043-.016-.03-.029v-3.301l.371-.371 2.539-2.442 1.387-1.386.684 1.836.449 1.25c.169.468.345.947.527 1.435.182.488.355.954.518 1.397.162.443.303.82.42 1.132a64.268 64.268 0 0 0 .82-.917.37.37 0 0 0 .068-.118.38.38 0 0 0 .01-.097c-.013-.065-.039-.423-.078-1.075-.039-.65-.078-1.373-.117-2.167-.065-.899-.124-1.823-.176-2.774-.052-.95-.097-1.719-.137-2.305l-.039-.547 4.512-4.511c.442-.443.677-.856.703-1.24.026-.384.02-.635-.019-.752a1.51 1.51 0 0 0-.43-.059m0-1.25c.299 0 .563.039.791.117.228.078.407.183.537.313.26.26.394.768.401 1.523.006.755-.355 1.498-1.084 2.227l-4.122 4.121c.026.573.069 1.322.127 2.246.059.925.114 1.833.166 2.724l.137 2.325c.039.657.059.999.059 1.025a1.77 1.77 0 0 1-.02.43c-.026.182-.137.39-.332.625-.195.234-.625.71-1.289 1.426a1.228 1.228 0 0 1-.342.244.85.85 0 0 1-.361.088h-.098a1.11 1.11 0 0 1-.302-.118c-.124-.065-.225-.195-.303-.39a49.446 49.446 0 0 1-.293-.781c-.17-.456-.368-.987-.596-1.592-.228-.606-.459-1.234-.693-1.885A99.697 99.697 0 0 0 10 13.027l-2.539 2.461c-.013.352-.016.866-.009 1.543.006.677.002 1.127-.01 1.348 0 .065-.01.185-.03.361-.019.176-.198.459-.537.85a1.652 1.652 0 0 1-.351.244.74.74 0 0 1-.332.088h-.02a.611.611 0 0 1-.322-.088.73.73 0 0 1-.244-.244 13.771 13.771 0 0 0-.293-.469 156.77 156.77 0 0 1-1.27-2.031 66.545 66.545 0 0 0-.449-.723 90.498 90.498 0 0 1-2.148-1.328c-.717-.456-1.107-.709-1.172-.762a.605.605 0 0 1-.225-.293.918.918 0 0 1-.049-.273c0-.078.02-.172.059-.283a.943.943 0 0 1 .234-.342l.059-.059c.377-.312.654-.485.83-.517a2.46 2.46 0 0 1 .381-.049H1.7c.234 0 .595.003 1.084.01.488.007.92.009 1.298.009h.391l2.461-2.539-1.66-.615a789.58 789.58 0 0 1-1.895-.703 242.27 242.27 0 0 1-1.611-.605c-.462-.176-.72-.27-.772-.284-.208-.078-.345-.182-.41-.312a.757.757 0 0 1-.097-.313.716.716 0 0 1 .048-.42 1.23 1.23 0 0 1 .264-.38A46.425 46.425 0 0 1 2.227 5.02c.195-.157.374-.254.537-.293.163-.039.296-.059.4-.059h.098a316.619 316.619 0 0 1 3.389.205c.891.059 1.806.121 2.744.186.937.065 1.692.11 2.266.136l4.121-4.101c.403-.404.82-.687 1.25-.85.429-.162.826-.244 1.191-.244"/>
</svg>
