<svg xmlns="http://www.w3.org/2000/svg" width="28" height="26" viewBox="0 0 28 26">
    <g fill="#4AA5ED" fill-rule="nonzero">
        <path d="M18.61 21.2c-2.561 0-3.927.8-5.122 1.5-1.127.667-2.083 1.233-4.098 1.233-2.049 0-3.005-.566-4.097-1.233C4.098 22 2.766 21.2.17 21.2v1.9c2.049 0 3.005.567 4.097 1.233 1.195.7 2.527 1.5 5.122 1.5 2.561 0 3.927-.8 5.122-1.5 1.127-.666 2.083-1.233 4.098-1.233 2.014 0 3.005.567 4.097 1.233 1.195.7 2.527 1.5 5.122 1.5v-1.9c-2.049 0-3.005-.566-4.097-1.233-1.195-.7-2.561-1.5-5.122-1.5zM27.83 2.067v-1.9c-3.484 0-6.352 2.733-6.42 6.133v.467h-5.976v-.334c0-2.433 2.015-4.4 4.507-4.4v-1.9c-3.482 0-6.35 2.734-6.419 6.134v10.6c-1.127.666-2.083 1.233-4.098 1.233-2.048 0-3.004-.567-4.097-1.233-1.195-.7-2.527-1.5-5.122-1.5v1.966c2.049 0 3.005.567 4.097 1.234 1.196.7 2.527 1.5 5.122 1.5 2.561 0 3.927-.8 5.122-1.5 1.127-.667 2.083-1.234 4.098-1.234 2.015 0 3.005.567 4.097 1.234 1.196.7 2.527 1.5 5.122 1.5v-1.9c-2.048 0-3.004-.567-4.097-1.234-.137-.066-.273-.166-.41-.233V6.467c-.034-2.434 1.98-4.4 4.473-4.4zM21.375 8.7v3.167h-5.942V8.7h5.942zm-2.766 6.733c-1.332 0-2.356.234-3.176.534v-2.234h5.976v2.1a9.539 9.539 0 0 0-2.8-.4z"/>
    </g>
</svg>
