<svg xmlns="http://www.w3.org/2000/svg" xmlns:xlink="http://www.w3.org/1999/xlink" width="33" height="35" viewBox="0 0 33 35">
    <defs>
        <path id="b" d="M14 .67l6.5 3.75A5 5 0 0 1 23 8.75v7.5a5 5 0 0 1-2.5 4.33L14 24.33a5 5 0 0 1-5 0l-6.5-3.75A5 5 0 0 1 0 16.25v-7.5a5 5 0 0 1 2.5-4.33L9 .67a5 5 0 0 1 5 0z"/>
        <filter id="a" width="160.9%" height="156%" x="-30.4%" y="-28%" filterUnits="objectBoundingBox">
            <feMorphology in="SourceAlpha" operator="dilate" radius="1" result="shadowSpreadOuter1"/>
            <feOffset in="shadowSpreadOuter1" result="shadowOffsetOuter1"/>
            <feGaussianBlur in="shadowOffsetOuter1" result="shadowBlurOuter1" stdDeviation="2"/>
            <feComposite in="shadowBlurOuter1" in2="SourceAlpha" operator="out" result="shadowBlurOuter1"/>
            <feColorMatrix in="shadowBlurOuter1" values="0 0 0 0 0.488919005 0 0 0 0 0.488919005 0 0 0 0 0.488919005 0 0 0 0.5 0"/>
        </filter>
    </defs>
    <g fill="none" fill-rule="evenodd">
        <g transform="translate(5 5)">
            <use fill="#000" filter="url(#a)" xlink:href="#b"/>
            <use fill="#F7BE1D" stroke="#FBEEE0" stroke-width="2" xlink:href="#b"/>
        </g>
        <path fill="#FFF" d="M11.16 17.756V21H9.853v-7.82h2.89c.873 0 1.548.197 2.025.59.476.394.714.957.714 1.687 0 .405-.105.753-.314 1.045-.21.292-.515.525-.916.7.44.14.757.369.95.685.194.317.29.707.29 1.169v.65c0 .229.03.453.087.671a.944.944 0 0 0 .29.5V21h-1.343c-.143-.118-.236-.304-.277-.559a4.665 4.665 0 0 1-.062-.746v-.629c0-.4-.114-.72-.343-.956-.23-.236-.545-.354-.946-.354h-1.74zm0-1.048h1.514c.523 0 .904-.1 1.144-.3.24-.2.36-.507.36-.919 0-.394-.118-.702-.355-.926-.236-.224-.596-.336-1.08-.336H11.16v2.481zm12.073 1.085c0 .957-.3 1.749-.9 2.377-.599.629-1.377.943-2.333.943-.938 0-1.7-.314-2.285-.943-.586-.628-.879-1.42-.879-2.377v-1.407c0-.952.293-1.744.879-2.374.585-.63 1.345-.945 2.28-.945.956 0 1.734.315 2.336.945.602.63.902 1.422.902 2.374v1.407zm-1.3-1.418c0-.651-.174-1.187-.523-1.605-.35-.42-.821-.629-1.415-.629-.573 0-1.026.21-1.36.629-.332.418-.499.954-.499 1.605v1.418c0 .66.167 1.2.5 1.62.333.42.787.63 1.364.63.598 0 1.07-.209 1.415-.627.346-.42.519-.96.519-1.623v-1.418z"/>
    </g>
</svg>
