<svg xmlns="http://www.w3.org/2000/svg" xmlns:xlink="http://www.w3.org/1999/xlink" width="84" height="89"><defs><filter id="a" width="124.3%" height="121.5%" x="-12.1%" y="-10.8%" filterUnits="objectBoundingBox"><feMorphology in="SourceAlpha" operator="dilate" radius="2.5" result="shadowSpreadOuter1"/><feOffset in="shadowSpreadOuter1" result="shadowOffsetOuter1"/><feGaussianBlur in="shadowOffsetOuter1" result="shadowBlurOuter1" stdDeviation="2"/><feComposite in="shadowBlurOuter1" in2="SourceAlpha" operator="out" result="shadowBlurOuter1"/><feColorMatrix in="shadowBlurOuter1" values="0 0 0 0 0.488919005 0 0 0 0 0.488919005 0 0 0 0 0.488919005 0 0 0 0.5 0"/></filter><path id="b" d="M42.51 2.36l20 11.57A15 15 0 0170 26.912v23.189a15 15 0 01-7.49 12.984l-20 11.57a15 15 0 01-15.02 0l-20-11.57A15 15 0 010 50.102V26.913A15 15 0 017.49 13.93l20-11.569a15 15 0 0115.02 0z"/></defs><g fill="none" fill-rule="evenodd"><g transform="translate(7 6)"><use fill="#000" filter="url(#a)" xlink:href="#b"/><use fill="#4094D6" stroke="#E0EFFB" stroke-width="5" xlink:href="#b"/></g><g fill="#FFF" fill-rule="nonzero"><path d="M57.442 53.448l-7.24-5.96a12.374 12.374 0 001.616-6.096c0-6.836-5.59-12.392-12.426-12.392S27 34.556 27 41.392c0 6.836 5.556 12.426 12.392 12.426 2.223 0 4.277-.572 6.095-1.616l5.96 7.24a4.242 4.242 0 006.298.303c1.785-1.785 1.65-4.714-.303-6.297zM30.704 41.392c0-4.782 3.906-8.688 8.688-8.688s8.688 3.906 8.688 8.688-3.906 8.688-8.688 8.688-8.688-3.872-8.688-8.688z"/><path d="M43.297 37.137c-.102-.103-.272-.137-.408-.137a.627.627 0 00-.41.17l-4.018 4.309-1.94-2.086a.563.563 0 00-.41-.17h-.034a.546.546 0 00-.374.17L34.17 40.83a.567.567 0 00-.17.41c0 .171.034.308.136.41l3.883 4.172c.204.239.613.239.851 0l5.96-6.428a.632.632 0 00.17-.41.567.567 0 00-.17-.41l-1.533-1.436z"/></g></g></svg>