<svg xmlns="http://www.w3.org/2000/svg" xmlns:xlink="http://www.w3.org/1999/xlink" width="84" height="89"><defs><filter id="a" width="124.3%" height="121.5%" x="-12.1%" y="-10.8%" filterUnits="objectBoundingBox"><feMorphology in="SourceAlpha" operator="dilate" radius="2.5" result="shadowSpreadOuter1"/><feOffset in="shadowSpreadOuter1" result="shadowOffsetOuter1"/><feGaussianBlur in="shadowOffsetOuter1" result="shadowBlurOuter1" stdDeviation="2"/><feComposite in="shadowBlurOuter1" in2="SourceAlpha" operator="out" result="shadowBlurOuter1"/><feColorMatrix in="shadowBlurOuter1" values="0 0 0 0 0.488919005 0 0 0 0 0.488919005 0 0 0 0 0.488919005 0 0 0 0.5 0"/></filter><path id="b" d="M42.51 2.36l20 11.57A15 15 0 0170 26.912v23.189a15 15 0 01-7.49 12.984l-20 11.57a15 15 0 01-15.02 0l-20-11.57A15 15 0 010 50.102V26.913A15 15 0 017.49 13.93l20-11.569a15 15 0 0115.02 0z"/></defs><g fill="none" fill-rule="evenodd"><g transform="translate(7 6)"><use fill="#000" filter="url(#a)" xlink:href="#b"/><use fill="#4094D6" stroke="#E0EFFB" stroke-width="5" xlink:href="#b"/></g><path fill="#FFF" fill-rule="nonzero" d="M59.059 46.045L42.249 29H28v14.15l16.81 16.885a3.275 3.275 0 004.643 0l9.445-9.487c1.441-1.126 1.441-3.216.16-4.503zM33.603 37.04c-1.28 0-2.401-1.125-2.401-2.412 0-1.286 1.12-2.412 2.401-2.412 1.281 0 2.402 1.126 2.402 2.412 0 1.287-1.12 2.412-2.402 2.412zm17.771 12.221c-.16.322-.48.483-.64.804-.961.965-2.082 1.448-3.202 1.448-1.121 0-2.242-.483-3.202-1.448l-.16-.16-.8.804-.961-1.126.8-.804-.96-.965-.801.804-.96-.965.8-.804-.32-.16c-1.12-1.126-1.601-2.252-1.601-3.377 0-1.287.48-2.252 1.28-3.217.16-.16.48-.482.801-.643.32-.16.48-.321.8-.643l1.441 1.608c-.32.16-.48.322-.8.482-.32.161-.48.322-.64.483-.48.482-.48.965-.48 1.447.16.643.48 1.126 1.12 1.769l.16.16 2.241-2.25.96.964-2.24 2.412.96.965 2.241-2.251.961.965-2.241 2.251.16.16c.64.644 1.12.966 1.76.966.481.16.961-.161 1.442-.483l.64-.643c.16-.322.32-.482.48-.804l1.601 1.286c-.32.322-.48.644-.64.965z"/></g></svg>