<svg xmlns="http://www.w3.org/2000/svg" xmlns:xlink="http://www.w3.org/1999/xlink" width="84" height="89"><defs><filter id="a" width="124.3%" height="121.5%" x="-12.1%" y="-10.8%" filterUnits="objectBoundingBox"><feMorphology in="SourceAlpha" operator="dilate" radius="2.5" result="shadowSpreadOuter1"/><feOffset in="shadowSpreadOuter1" result="shadowOffsetOuter1"/><feGaussianBlur in="shadowOffsetOuter1" result="shadowBlurOuter1" stdDeviation="2"/><feComposite in="shadowBlurOuter1" in2="SourceAlpha" operator="out" result="shadowBlurOuter1"/><feColorMatrix in="shadowBlurOuter1" values="0 0 0 0 0.488919005 0 0 0 0 0.488919005 0 0 0 0 0.488919005 0 0 0 0.5 0"/></filter><path id="b" d="M42.51 2.36l20 11.57A15 15 0 0170 26.912v23.189a15 15 0 01-7.49 12.984l-20 11.57a15 15 0 01-15.02 0l-20-11.57A15 15 0 010 50.102V26.913A15 15 0 017.49 13.93l20-11.569a15 15 0 0115.02 0z"/></defs><g fill="none" fill-rule="evenodd"><g transform="translate(7 6)"><use fill="#000" filter="url(#a)" xlink:href="#b"/><use fill="#4094D6" stroke="#E0EFFB" stroke-width="5" xlink:href="#b"/></g><path fill="#FFF" d="M49.898 56h-15.53v-2.984l7.359-7.891c1.062-1.219 1.817-2.247 2.265-3.086.448-.838.672-1.617.672-2.336 0-.958-.258-1.742-.773-2.351-.516-.61-1.248-.914-2.196-.914-1.052 0-1.851.356-2.398 1.07-.547.713-.82 1.664-.82 2.851h-4.438l-.031-.093c-.052-2.052.622-3.79 2.023-5.211 1.401-1.422 3.29-2.133 5.664-2.133 2.344 0 4.185.61 5.524 1.828 1.338 1.219 2.008 2.844 2.008 4.875a6.841 6.841 0 01-1.133 3.805c-.755 1.161-2.003 2.685-3.742 4.57l-4.047 4.422.03.078h9.563V56z"/></g></svg>