<svg xmlns="http://www.w3.org/2000/svg" xmlns:xlink="http://www.w3.org/1999/xlink" width="84" height="89"><defs><filter id="a" width="124.3%" height="121.5%" x="-12.1%" y="-10.8%" filterUnits="objectBoundingBox"><feMorphology in="SourceAlpha" operator="dilate" radius="2.5" result="shadowSpreadOuter1"/><feOffset in="shadowSpreadOuter1" result="shadowOffsetOuter1"/><feGaussianBlur in="shadowOffsetOuter1" result="shadowBlurOuter1" stdDeviation="2"/><feComposite in="shadowBlurOuter1" in2="SourceAlpha" operator="out" result="shadowBlurOuter1"/><feColorMatrix in="shadowBlurOuter1" values="0 0 0 0 0.488919005 0 0 0 0 0.488919005 0 0 0 0 0.488919005 0 0 0 0.5 0"/></filter><path id="b" d="M42.51 2.36l20 11.57A15 15 0 0170 26.912v23.189a15 15 0 01-7.49 12.984l-20 11.57a15 15 0 01-15.02 0l-20-11.57A15 15 0 010 50.102V26.913A15 15 0 017.49 13.93l20-11.569a15 15 0 0115.02 0z"/></defs><g fill="none" fill-rule="evenodd"><g transform="translate(7 6)"><use fill="#000" filter="url(#a)" xlink:href="#b"/><use fill="#4094D6" stroke="#E0EFFB" stroke-width="5" xlink:href="#b"/></g><path fill="#FFF" d="M38.977 42.688h2.562c1.083 0 1.885-.284 2.406-.852.521-.568.782-1.357.782-2.367 0-.917-.26-1.651-.782-2.203-.52-.552-1.276-.828-2.265-.828-.854 0-1.573.25-2.157.75-.583.5-.875 1.156-.875 1.968h-4.421l-.032-.093c-.062-1.782.62-3.25 2.047-4.407 1.427-1.156 3.198-1.734 5.313-1.734 2.354 0 4.231.562 5.633 1.687 1.4 1.125 2.101 2.73 2.101 4.813 0 .99-.312 1.93-.937 2.82-.625.89-1.485 1.586-2.579 2.086 1.26.448 2.222 1.136 2.883 2.063.662.927.992 2.005.992 3.234 0 2.083-.757 3.721-2.273 4.914-1.516 1.193-3.456 1.79-5.82 1.79-2.115 0-3.93-.56-5.446-1.68-1.515-1.12-2.247-2.701-2.195-4.743l.031-.093h4.422c0 .875.313 1.596.938 2.164.625.567 1.416.851 2.375.851 1.052 0 1.882-.292 2.492-.875.61-.583.914-1.375.914-2.375 0-1.198-.3-2.075-.898-2.633-.6-.557-1.482-.836-2.649-.836h-2.562v-3.422z"/></g></svg>