<svg xmlns="http://www.w3.org/2000/svg" xmlns:xlink="http://www.w3.org/1999/xlink" width="33" height="35"><defs><filter id="a" width="160.9%" height="156%" x="-30.4%" y="-28%" filterUnits="objectBoundingBox"><feMorphology in="SourceAlpha" operator="dilate" radius="1" result="shadowSpreadOuter1"/><feOffset in="shadowSpreadOuter1" result="shadowOffsetOuter1"/><feGaussianBlur in="shadowOffsetOuter1" result="shadowBlurOuter1" stdDeviation="2"/><feComposite in="shadowBlurOuter1" in2="SourceAlpha" operator="out" result="shadowBlurOuter1"/><feColorMatrix in="shadowBlurOuter1" values="0 0 0 0 0.488919005 0 0 0 0 0.488919005 0 0 0 0 0.488919005 0 0 0 0.5 0"/></filter><path id="b" d="M14 .67l6.5 3.75A5 5 0 0123 8.75v7.5a5 5 0 01-2.5 4.33L14 24.33a5 5 0 01-5 0l-6.5-3.75A5 5 0 010 16.25v-7.5a5 5 0 012.5-4.33L9 .67a5 5 0 015 0z"/></defs><g fill="none" fill-rule="evenodd"><g transform="translate(5 5)"><use fill="#000" filter="url(#a)" xlink:href="#b"/><use fill="#19A4D5" stroke="#E0EFFB" stroke-width="2" xlink:href="#b"/></g><path fill="#FFF" d="M16.083 17.72h.808v.86h-.808V20h-1.064v-1.42h-2.747l-.026-.654 2.738-4.324h1.099v4.117zm-2.782 0h1.718v-2.598l-.026-.009-.088.19-1.604 2.416zm6.829-1.24h1.67v.976h-1.67v1.902h-1.037v-1.902h-1.679v-.976h1.679V14.7h1.037v1.78z"/></g></svg>