<svg xmlns="http://www.w3.org/2000/svg" xmlns:xlink="http://www.w3.org/1999/xlink" width="33" height="35"><defs><filter id="a" width="160.9%" height="156%" x="-30.4%" y="-28%" filterUnits="objectBoundingBox"><feMorphology in="SourceAlpha" operator="dilate" radius="1" result="shadowSpreadOuter1"/><feOffset in="shadowSpreadOuter1" result="shadowOffsetOuter1"/><feGaussianBlur in="shadowOffsetOuter1" result="shadowBlurOuter1" stdDeviation="2"/><feComposite in="shadowBlurOuter1" in2="SourceAlpha" operator="out" result="shadowBlurOuter1"/><feColorMatrix in="shadowBlurOuter1" values="0 0 0 0 0.488919005 0 0 0 0 0.488919005 0 0 0 0 0.488919005 0 0 0 0.5 0"/></filter><path id="b" d="M14 .67l6.5 3.75A5 5 0 0123 8.75v7.5a5 5 0 01-2.5 4.33L14 24.33a5 5 0 01-5 0l-6.5-3.75A5 5 0 010 16.25v-7.5a5 5 0 012.5-4.33L9 .67a5 5 0 015 0z"/></defs><g fill="none" fill-rule="evenodd"><g transform="translate(5 5)"><use fill="#000" filter="url(#a)" xlink:href="#b"/><use fill="#4094D6" stroke="#E0EFFB" stroke-width="2" xlink:href="#b"/></g><path fill="#FFF" d="M12.083 18.72h.808v.86h-.808V21h-1.064v-1.42H8.272l-.026-.654 2.738-4.324h1.099v4.117zm-2.782 0h1.718v-2.598l-.026-.009-.088.19L9.3 18.718zm5.41 2.144l-.682 1.37h-.676l.307-1.41v-.87h1.05v.91zm1.12-2.725l.37-3.537h3.379v.922h-2.492l-.193 1.604a1.696 1.696 0 01.997-.33c.6-.005 1.07.185 1.41.572.34.387.51.916.51 1.587 0 .626-.178 1.14-.536 1.538-.357.398-.874.597-1.55.597-.563 0-1.039-.154-1.427-.463-.388-.31-.575-.748-.56-1.317l.009-.021.997-.036c0 .31.09.553.273.725.181.173.417.26.707.26.331 0 .584-.117.758-.35.174-.233.262-.54.262-.925 0-.386-.09-.7-.268-.942-.18-.242-.434-.363-.765-.363-.293 0-.51.048-.653.143a.807.807 0 00-.31.41l-.918-.074zm7.444-.659h1.67v.976h-1.67v1.902h-1.037v-1.902H20.56v-.976h1.678V15.7h1.037v1.78z"/></g></svg>