<svg xmlns="http://www.w3.org/2000/svg" xmlns:xlink="http://www.w3.org/1999/xlink" width="33" height="35"><defs><filter id="a" width="160.9%" height="156%" x="-30.4%" y="-28%" filterUnits="objectBoundingBox"><feMorphology in="SourceAlpha" operator="dilate" radius="1" result="shadowSpreadOuter1"/><feOffset in="shadowSpreadOuter1" result="shadowOffsetOuter1"/><feGaussianBlur in="shadowOffsetOuter1" result="shadowBlurOuter1" stdDeviation="2"/><feComposite in="shadowBlurOuter1" in2="SourceAlpha" operator="out" result="shadowBlurOuter1"/><feColorMatrix in="shadowBlurOuter1" values="0 0 0 0 0.488919005 0 0 0 0 0.488919005 0 0 0 0 0.488919005 0 0 0 0.5 0"/></filter><path id="b" d="M14 .67l6.5 3.75A5 5 0 0123 8.75v7.5a5 5 0 01-2.5 4.33L14 24.33a5 5 0 01-5 0l-6.5-3.75A5 5 0 010 16.25v-7.5a5 5 0 012.5-4.33L9 .67a5 5 0 015 0z"/></defs><g fill="none" fill-rule="evenodd"><g transform="translate(5 5)"><use fill="#000" filter="url(#a)" xlink:href="#b"/><use fill="#FFB334" stroke="#FBEEE0" stroke-width="2" xlink:href="#b"/></g><path fill="#FFF" d="M9.714 17.317h.743c.345 0 .594-.085.747-.257.152-.171.228-.414.228-.727 0-.308-.082-.546-.246-.714-.164-.169-.406-.253-.725-.253-.29 0-.527.083-.71.249a.838.838 0 00-.274.652H8.448l-.009-.026c-.017-.49.165-.9.548-1.233.382-.332.869-.499 1.46-.499.625 0 1.123.158 1.495.475.372.316.558.766.558 1.349 0 .272-.083.536-.25.791a1.642 1.642 0 01-.712.593c.363.13.63.325.802.59.171.263.257.563.257.9 0 .586-.202 1.047-.605 1.382-.402.336-.917.503-1.544.503-.592 0-1.09-.157-1.492-.472-.403-.315-.596-.75-.578-1.307l.009-.027h1.028c0 .284.095.514.286.69.19.176.444.264.76.264.331 0 .592-.09.782-.268.19-.179.286-.432.286-.76 0-.36-.087-.627-.262-.798-.174-.172-.444-.257-.81-.257h-.743v-.84zm4.996 3.547l-.68 1.37h-.677l.307-1.41v-.87h1.05v.91zm1.121-2.725l.37-3.537h3.379v.922h-2.492l-.193 1.604a1.696 1.696 0 01.997-.33c.6-.005 1.07.185 1.41.572.34.387.51.916.51 1.587 0 .626-.178 1.14-.536 1.538-.357.398-.874.597-1.55.597-.563 0-1.039-.154-1.427-.463-.388-.31-.575-.748-.56-1.317l.009-.021.997-.036c0 .31.09.553.273.725.181.173.417.26.707.26.331 0 .584-.117.758-.35.174-.233.262-.54.262-.925 0-.386-.09-.7-.268-.942-.18-.242-.434-.363-.765-.363-.293 0-.51.048-.653.143a.807.807 0 00-.31.41l-.918-.074zm7.444-.659h1.67v.976h-1.67v1.902h-1.037v-1.902H20.56v-.976h1.678V15.7h1.037v1.78z"/></g></svg>