<svg xmlns="http://www.w3.org/2000/svg" xmlns:xlink="http://www.w3.org/1999/xlink" width="84" height="89"><defs><filter id="a" width="124.3%" height="121.5%" x="-12.1%" y="-10.8%" filterUnits="objectBoundingBox"><feMorphology in="SourceAlpha" operator="dilate" radius="2.5" result="shadowSpreadOuter1"/><feOffset in="shadowSpreadOuter1" result="shadowOffsetOuter1"/><feGaussianBlur in="shadowOffsetOuter1" result="shadowBlurOuter1" stdDeviation="2"/><feComposite in="shadowBlurOuter1" in2="SourceAlpha" operator="out" result="shadowBlurOuter1"/><feColorMatrix in="shadowBlurOuter1" values="0 0 0 0 0.488919005 0 0 0 0 0.488919005 0 0 0 0 0.488919005 0 0 0 0.5 0"/></filter><path id="b" d="M42.51 2.36l20 11.57A15 15 0 0170 26.912v23.189a15 15 0 01-7.49 12.984l-20 11.57a15 15 0 01-15.02 0l-20-11.57A15 15 0 010 50.102V26.913A15 15 0 017.49 13.93l20-11.569a15 15 0 0115.02 0z"/></defs><g fill="none" fill-rule="evenodd"><g transform="translate(7 6)"><use fill="#000" filter="url(#a)" xlink:href="#b"/><use fill="#E44273" stroke="#FBE0E0" stroke-width="5" xlink:href="#b"/></g><g fill="#FFF" fill-rule="nonzero"><path d="M36.111 33.555a5.554 5.554 0 01-5.555 5.556A5.554 5.554 0 0125 33.555 5.554 5.554 0 0130.555 28a5.554 5.554 0 015.556 5.555zm22.222 0l-1.062-2.566a12.924 12.924 0 00-6.4 5.71 13.708 13.708 0 00-7.816-2.45v2.779c2.352 0 4.585.747 6.45 2.108a15.656 15.656 0 00-10.616 4.58l1.964 1.964a12.838 12.838 0 018.99-3.783 27.36 27.36 0 01-5.08 13.305C38.109 54.733 31.39 55.77 25 58.34v2.994c10.296-4.449 22.23-4.805 33.333-.003v-2.995a45.012 45.012 0 00-10.441-2.809 29.96 29.96 0 004.754-13.71 10.918 10.918 0 013.12 4.24l2.567-1.061a13.668 13.668 0 00-3.677-5.095 8.968 8.968 0 013.677-.79v-2.777c-1.611 0-3.147.326-4.545.912a10.23 10.23 0 014.545-3.69z"/><path d="M27.778 47.444h11.111v2.777H27.778zM25 41.889h5.555v2.778H25z"/></g></g></svg>