<svg xmlns="http://www.w3.org/2000/svg" width="17" height="18"><path fill="#BDBDBD" d="M16.545 10.3a.55.55 0 00-.668-.39l-1.579.428c-.34.07-.692.023-1-.134l-1.599-.93a.291.291 0 010-.549l1.598-.929a1.522 1.522 0 011.001-.134l1.579.428a.542.542 0 00.668-.39l.426-1.59a.553.553 0 00-.388-.682l-.818-.22a.546.546 0 01-.387-.673l.218-.825a.553.553 0 00-.387-.673l-1.58-.429a.542.542 0 00-.667.39l-.415 1.605a1.51 1.51 0 01-.613.825l-1.599.928c-.259.152-.471.028-.471-.274V4.21a1.54 1.54 0 01.384-.937l1.16-1.168a.553.553 0 000-.775L10.247.163a.543.543 0 00-.769 0l-.594.593a.543.543 0 01-.77 0L7.521.16a.543.543 0 00-.77 0L5.594 1.328a.553.553 0 000 .775L6.752 3.27c.23.26.366.591.384.94v1.86c0 .302-.212.426-.471.274l-1.599-.917a1.51 1.51 0 01-.613-.825l-.426-1.585a.55.55 0 00-.668-.39l-1.579.428a.546.546 0 00-.387.673l.218.825a.553.553 0 01-.387.673l-.818.22a.546.546 0 00-.387.673L.444 7.71a.542.542 0 00.693.38l1.579-.43c.339-.07.692-.022 1 .135l1.585.93a.291.291 0 010 .549l-1.598.929a1.522 1.522 0 01-1.001.134L1.137 9.91a.542.542 0 00-.669.39l-.425 1.59a.553.553 0 00.374.682l.818.22a.546.546 0 01.387.673l-.218.825a.553.553 0 00.387.673l1.58.429a.542.542 0 00.667-.39l.415-1.605c.102-.339.32-.63.613-.825l1.599-.928c.259-.152.471-.028.471.274v1.86a1.54 1.54 0 01-.384.938l-1.16 1.168a.553.553 0 000 .775l1.16 1.167a.543.543 0 00.769 0l.594-.582a.543.543 0 01.77 0l.594.596a.543.543 0 00.77 0l1.158-1.168a.553.553 0 000-.775l-1.159-1.168a1.54 1.54 0 01-.384-.94v-1.86c0-.302.212-.426.471-.274l1.599.917c.294.194.51.486.613.825l.426 1.59a.55.55 0 00.668.391l1.579-.429a.546.546 0 00.387-.673l-.218-.824a.553.553 0 01.387-.674l.818-.22a.546.546 0 00.387-.673l-.436-1.585z"/></svg>