<svg xmlns="http://www.w3.org/2000/svg" width="17" height="26"><path d="M6 4.847C6 2.901 4.893 0 3 0S0 2.9 0 4.847c0 1.631.778 3 2.143 3.402v8.937h-.857v1.14c0 1.293-.125 2.584-.371 3.853a3.13 3.13 0 00-.058.597c0 .923.409 1.797 1.11 2.374L3 26l1.033-.85a3.074 3.074 0 001.11-2.374c0-.2-.02-.4-.058-.597a20.187 20.187 0 01-.37-3.854v-1.139h-.858V8.25C5.222 7.846 6 6.478 6 4.847zm-2.571 19.39H2.57v-.881h.858v.881zM1.286 4.847c0-1.42.72-3.525 1.714-3.525v.881c-.226.1-.857 1.344-.857 2.644 0 1.322.645 1.322.857 1.322v.882c-1.074 0-1.714-.824-1.714-2.204zm14.825-.123a3.06 3.06 0 01-.363 1.445h-.526V0h-.889v6.17h-.889V0h-.888v6.17h-.89V0h-.888v6.17h-.526a3.06 3.06 0 01-.363-1.446V0H9v4.724c0 1.329.666 2.562 1.781 3.3l1.195.79h.135v8.372h-.889v1.14a19.49 19.49 0 01-.385 3.853 3.021 3.021 0 001.092 2.971L13 26l1.071-.85a3.032 3.032 0 001.092-2.97 19.49 19.49 0 01-.385-3.855v-1.139h-.89V8.814h.136l1.195-.79A3.95 3.95 0 0017 4.723V0h-.889v4.724zm-2.667 19.513h-.888v-.881h.888v.881z" fill="#4AA5ED"/></svg>