<svg xmlns="http://www.w3.org/2000/svg" width="13" height="14"><path fill="#48A2E9" fill-rule="evenodd" d="M9.492 8.141a3.19 3.19 0 01-3.063 2.252A3.19 3.19 0 013.365 8.14a.53.53 0 01.352-.67.533.533 0 01.67.352A2.13 2.13 0 006.429 9.32 2.13 2.13 0 008.47 7.823a.539.539 0 01.678-.351.532.532 0 01.343.67zM5.357 4.5c0 .594-.477 1.071-1.071 1.071A1.068 1.068 0 013.214 4.5c0-.594.477-1.071 1.072-1.071.594 0 1.071.477 1.071 1.071zm4.286 0c0 .594-.477 1.071-1.072 1.071A1.068 1.068 0 017.5 4.5c0-.594.477-1.071 1.071-1.071.595 0 1.072.477 1.072 1.071zm2.143 2.143a5.362 5.362 0 00-5.357-5.357A5.362 5.362 0 001.07 6.643 5.362 5.362 0 006.43 12a5.362 5.362 0 005.357-5.357zm1.071 0A6.43 6.43 0 016.43 13.07 6.43 6.43 0 010 6.643 6.43 6.43 0 016.429.214a6.43 6.43 0 016.428 6.429z"/></svg>