<svg xmlns="http://www.w3.org/2000/svg" xmlns:xlink="http://www.w3.org/1999/xlink" width="33" height="35"><defs><filter id="a" width="160.9%" height="156%" x="-30.4%" y="-28%" filterUnits="objectBoundingBox"><feMorphology in="SourceAlpha" operator="dilate" radius="1" result="shadowSpreadOuter1"/><feOffset in="shadowSpreadOuter1" result="shadowOffsetOuter1"/><feGaussianBlur in="shadowOffsetOuter1" result="shadowBlurOuter1" stdDeviation="2"/><feComposite in="shadowBlurOuter1" in2="SourceAlpha" operator="out" result="shadowBlurOuter1"/><feColorMatrix in="shadowBlurOuter1" values="0 0 0 0 0.488919005 0 0 0 0 0.488919005 0 0 0 0 0.488919005 0 0 0 0.5 0"/></filter><path id="b" d="M14 .67l6.5 3.75A5 5 0 0123 8.75v7.5a5 5 0 01-2.5 4.33L14 24.33a5 5 0 01-5 0l-6.5-3.75A5 5 0 010 16.25v-7.5a5 5 0 012.5-4.33L9 .67a5 5 0 015 0z"/></defs><g fill="none" fill-rule="evenodd"><g transform="translate(5 5)"><use fill="#000" filter="url(#a)" xlink:href="#b"/><use fill="#E44273" stroke="#FBE0E0" stroke-width="2" xlink:href="#b"/></g><path fill="#FFF" d="M15.96 21h-1.299v-3.335H11.16V21H9.854v-7.82h1.305v3.437h3.502V13.18h1.3V21zm1.714 0v-7.82h2.6c.866 0 1.543.178 2.03.534.487.356.73.889.73 1.598 0 .355-.101.671-.305.95-.205.28-.487.488-.85.624.466.104.824.327 1.075.671.25.344.376.743.376 1.198 0 .734-.24 1.292-.72 1.673S21.468 21 20.623 21h-2.949zm1.305-3.556v2.514h1.644c.451 0 .799-.103 1.042-.309.244-.206.365-.504.365-.894 0-.415-.102-.738-.306-.967-.204-.23-.523-.344-.956-.344H18.98zm0-.972h1.44c.405 0 .724-.096.959-.287.234-.192.351-.463.351-.814 0-.387-.123-.674-.37-.862-.247-.188-.609-.282-1.085-.282h-1.295v2.245z"/></g></svg>