<svg xmlns="http://www.w3.org/2000/svg" xmlns:xlink="http://www.w3.org/1999/xlink" width="84" height="89"><defs><filter id="a" width="124.3%" height="121.5%" x="-12.1%" y="-10.8%" filterUnits="objectBoundingBox"><feMorphology in="SourceAlpha" operator="dilate" radius="2.5" result="shadowSpreadOuter1"/><feOffset in="shadowSpreadOuter1" result="shadowOffsetOuter1"/><feGaussianBlur in="shadowOffsetOuter1" result="shadowBlurOuter1" stdDeviation="2"/><feComposite in="shadowBlurOuter1" in2="SourceAlpha" operator="out" result="shadowBlurOuter1"/><feColorMatrix in="shadowBlurOuter1" values="0 0 0 0 0.488919005 0 0 0 0 0.488919005 0 0 0 0 0.488919005 0 0 0 0.5 0"/></filter><path id="b" d="M42.51 2.36l20 11.57A15 15 0 0170 26.912v23.189a15 15 0 01-7.49 12.984l-20 11.57a15 15 0 01-15.02 0l-20-11.57A15 15 0 010 50.102V26.913A15 15 0 017.49 13.93l20-11.569a15 15 0 0115.02 0z"/></defs><g fill="none" fill-rule="evenodd"><g transform="translate(7 6)"><use fill="#000" filter="url(#a)" xlink:href="#b"/><use fill="#4094D6" stroke="#E0EFFB" stroke-width="5" xlink:href="#b"/></g><path d="M31.112 32.938c.131.099.164.263.131.427l-.394 1.675c-.1.362.295.657.624.46l1.447-.887a.488.488 0 01.427 0l1.447.887c.329.197.723-.098.624-.46l-.394-1.675a.43.43 0 01.131-.427l1.283-1.117c.295-.23.131-.69-.23-.722l-1.677-.165c-.165 0-.296-.098-.362-.262l-.657-1.577c-.132-.328-.625-.328-.757 0l-.657 1.577a.509.509 0 01-.362.262l-1.71.132c-.361.033-.525.492-.23.722l1.316 1.15zm17.227 0c.131.099.164.263.131.427l-.394 1.675c-.099.362.296.657.625.46l1.446-.887a.488.488 0 01.428 0l1.446.887c.329.197.723-.098.625-.46l-.362-1.708a.43.43 0 01.132-.427l1.282-1.117c.296-.23.131-.69-.23-.722l-1.71-.132c-.164 0-.296-.098-.362-.262l-.657-1.577c-.132-.328-.625-.328-.756 0l-.658 1.577a.509.509 0 01-.361.262l-1.71.132c-.362.033-.526.492-.23.722l1.315 1.15zm-8.614 0c.132.099.165.263.132.427l-.395 1.642c-.098.362.296.657.625.46l1.446-.887a.488.488 0 01.428 0l1.446.887c.33.197.724-.098.625-.46l-.394-1.675a.43.43 0 01.131-.427l1.282-1.117c.296-.23.132-.69-.23-.722l-1.71-.132c-.164 0-.295-.098-.361-.262l-.658-1.577c-.131-.328-.624-.328-.756 0l-.657 1.577a.509.509 0 01-.362.262l-1.71.132c-.361.033-.526.492-.23.722l1.348 1.15zm14.203 24.405h-.066v-19.15c0-.624-.526-1.15-1.15-1.15H30.815c-.625 0-1.151.526-1.151 1.15v19.15h-.066c-.756 0-1.38.624-1.38 1.38 0 .755.624 1.38 1.38 1.38h24.329c.756 0 1.38-.625 1.38-1.38 0-.756-.624-1.38-1.38-1.38zm-6.97-16.16c0-.395.296-.69.69-.69h2.072c.394 0 .69.295.69.69v2.069c0 .394-.296.69-.69.69h-2.072a.674.674 0 01-.69-.69v-2.07zm0 6.01c0-.394.296-.69.69-.69h2.072c.394 0 .69.296.69.69v2.07c0 .394-.296.69-.69.69h-2.072a.674.674 0 01-.69-.69v-2.07zm0 6.044c0-.394.296-.69.69-.69h2.072c.394 0 .69.296.69.69v2.07c0 .394-.296.69-.69.69h-2.072a.674.674 0 01-.69-.69v-2.07zm-6.937-12.054c0-.395.296-.69.69-.69h2.072c.394 0 .69.295.69.69v2.069c0 .394-.296.69-.69.69h-2.071a.674.674 0 01-.69-.69v-2.07zm0 6.01c0-.394.296-.69.69-.69h2.072c.394 0 .69.296.69.69v2.07c0 .394-.296.69-.69.69h-2.071a.674.674 0 01-.69-.69v-2.07zm0 6.044c0-.394.296-.69.69-.69h2.072c.394 0 .69.296.69.69v2.07c0 .394-.296.69-.69.69h-2.071a.674.674 0 01-.69-.69v-2.07zm-6.904-12.054c0-.395.296-.69.69-.69h2.072c.394 0 .69.295.69.69v2.069c0 .394-.296.69-.69.69h-2.072a.674.674 0 01-.69-.69v-2.07zm0 6.01c0-.394.296-.69.69-.69h2.072c.394 0 .69.296.69.69v2.07c0 .394-.296.69-.69.69h-2.072a.674.674 0 01-.69-.69v-2.07zm0 6.044c0-.394.296-.69.69-.69h2.072c.394 0 .69.296.69.69v2.07c0 .394-.296.69-.69.69h-2.072a.674.674 0 01-.69-.69v-2.07z" fill="#FFF" fill-rule="nonzero"/></g></svg>