<svg xmlns="http://www.w3.org/2000/svg" xmlns:xlink="http://www.w3.org/1999/xlink" width="84" height="89"><defs><filter id="a" width="124.3%" height="121.5%" x="-12.1%" y="-10.8%" filterUnits="objectBoundingBox"><feMorphology in="SourceAlpha" operator="dilate" radius="2.5" result="shadowSpreadOuter1"/><feOffset in="shadowSpreadOuter1" result="shadowOffsetOuter1"/><feGaussianBlur in="shadowOffsetOuter1" result="shadowBlurOuter1" stdDeviation="2"/><feComposite in="shadowBlurOuter1" in2="SourceAlpha" operator="out" result="shadowBlurOuter1"/><feColorMatrix in="shadowBlurOuter1" values="0 0 0 0 0.488919005 0 0 0 0 0.488919005 0 0 0 0 0.488919005 0 0 0 0.5 0"/></filter><path id="b" d="M42.51 2.36l20 11.57A15 15 0 0170 26.912v23.189a15 15 0 01-7.49 12.984l-20 11.57a15 15 0 01-15.02 0l-20-11.57A15 15 0 010 50.102V26.913A15 15 0 017.49 13.93l20-11.569a15 15 0 0115.02 0z"/></defs><g fill="none" fill-rule="evenodd"><g transform="translate(7 6)"><use fill="#000" filter="url(#a)" xlink:href="#b"/><use fill="#4094D6" stroke="#E0EFFB" stroke-width="5" xlink:href="#b"/></g><g fill="#FFF" fill-rule="nonzero"><path d="M60 37.144C60 30.424 54.864 25 48.5 25 42.182 25 37 30.424 37 37.144v.528h.045c.228-.72.546-1.392.955-2.016 2.545-3.648 7.773-4.128 11.682-1.104 3.909 3.024 5.045 8.448 2.5 12.096-.455.672-1.046 1.248-1.682 1.728.045.192.09.432.136.624C56 47.944 60 43.048 60 37.144zm-3.91-4.656c-.726 1.536-2.954 1.872-5 .816-2.045-1.056-3.135-3.168-2.408-4.704.727-1.536 2.954-1.872 5-.816 2.045 1.104 3.136 3.168 2.409 4.704z"/><path d="M37.5 38h-.693C29.687 38.415 24 44.266 24 51.5 24 58.964 30.057 65 37.5 65S51 58.964 51 51.5c0-.875-.092-1.705-.231-2.534-.046-.184-.093-.415-.139-.6C49.15 42.424 43.834 38 37.5 38zm-.97 17.324a6.717 6.717 0 01-6.75-6.727 6.717 6.717 0 016.75-6.727 6.717 6.717 0 016.75 6.727 6.717 6.717 0 01-6.75 6.727z"/><path d="M37.934 46.927l.192-.43c2.302-3.779-1.775-3.492-1.775-3.492-2.399.191-3.214 1.865-3.214 1.865-.863 2.63 2.638 2.726 2.638 2.726l-.431.335c-2.783 2.726.191 3.922.191 3.922 4.126.813 5.325-2.009 5.325-2.009.911-3.396-2.926-2.917-2.926-2.917zm-3.022-1.483c-.096-.526.384-1.1 1.103-1.243.72-.144 1.391.191 1.487.717.096.526-.384 1.1-1.103 1.244-.672.143-1.343-.192-1.487-.718zm3.022 5.261c-.816.144-1.535-.191-1.679-.813-.144-.622.432-1.243 1.2-1.387.815-.143 1.534.191 1.678.813.096.574-.432 1.196-1.2 1.387zM50 28.84L54.076 32l.924-.84L50.924 28z"/></g></g></svg>