<svg xmlns="http://www.w3.org/2000/svg" xmlns:xlink="http://www.w3.org/1999/xlink" width="20" height="21"><defs><path id="a" d="M792.57 1027.559l.528.293c.351.195.527.449.527.761v1.582c0 .3-.104.55-.313.752a1.03 1.03 0 01-.742.303h-13.515c-.287 0-.534-.1-.742-.303a1.005 1.005 0 01-.313-.752v-1.582c0-.286.176-.534.527-.742l.528-.312 4.043-2.188c-.743-.586-1.257-1.367-1.543-2.344-.287-.976-.43-1.751-.43-2.324v-2.637c0-.442.137-.882.41-1.318.274-.436.632-.83 1.074-1.182a5.825 5.825 0 011.514-.859 4.663 4.663 0 011.709-.332c.586 0 1.159.11 1.719.332.56.221 1.058.508 1.494.86a4.61 4.61 0 011.055 1.181c.267.436.4.876.4 1.318v2.637c0 .638-.127 1.432-.38 2.383-.255.95-.746 1.719-1.475 2.305l3.925 2.168zm-.195 2.441v-1.113a.521.521 0 00-.137-.098l-.156-.078a.095.095 0 01-.049-.02.638.638 0 00-.068-.039l-3.926-2.168a1.32 1.32 0 01-.45-.42 1.151 1.151 0 01-.194-.576 1.14 1.14 0 01.087-.605c.085-.196.212-.358.381-.488.534-.417.899-1.013 1.094-1.788.195-.774.293-1.41.293-1.904v-2.637c0-.455-.342-.976-1.025-1.562a3.563 3.563 0 00-2.393-.879c-.885 0-1.683.293-2.393.879-.71.586-1.064 1.107-1.064 1.562v2.637c0 .495.117 1.13.352 1.904.234.775.618 1.37 1.152 1.788.156.13.277.293.361.488.085.195.114.397.088.605a1.15 1.15 0 01-.195.576c-.117.176-.267.31-.45.4l-4.042 2.208a.087.087 0 00-.04.01.153.153 0 00-.038.029.541.541 0 00-.167.078l-.146.098V1030h13.125zm4.57-5.547l.528.293c.351.195.527.45.527.762v1.562c0 .3-.104.55-.313.752a1.03 1.03 0 01-.742.303h-2.07a7.162 7.162 0 00-.244-.723 1.27 1.27 0 00-.4-.527h2.519v-1.113a5.602 5.602 0 00-.137-.088.545.545 0 00-.156-.069.123.123 0 00-.049-.029.536.536 0 01-.068-.03l-3.985-2.167a1.32 1.32 0 01-.449-.42 1.151 1.151 0 01-.195-.576 1.14 1.14 0 01.088-.606c.084-.195.211-.358.38-.488.535-.43.909-1.032 1.124-1.807.215-.774.322-1.403.322-1.884v-2.637c0-.469-.352-.996-1.055-1.582a3.675 3.675 0 00-2.422-.879 3.975 3.975 0 00-2.383.8 3.068 3.068 0 00-.78-.136l-.801-.039c.455-.534 1.041-.983 1.757-1.348a4.81 4.81 0 012.207-.547c.586 0 1.163.114 1.729.342a6.043 6.043 0 011.514.87c.442.351.8.748 1.074 1.19.273.444.41.886.41 1.329v2.637c0 .625-.137 1.416-.41 2.373-.274.957-.775 1.722-1.504 2.295l3.984 2.187z"/></defs><g fill="none" fill-rule="evenodd" transform="translate(-778 -1011)"><use fill="#48A1E8" xlink:href="#a"/><use fill="#47A0E6" xlink:href="#a"/></g></svg>