<svg xmlns="http://www.w3.org/2000/svg" width="16" height="16"><path fill="#47A0E6" fill-rule="evenodd" d="M2.227 1.888c.118 0 .286.032.502.096.217.064.443.214.679.45l3.41 3.41.428-.03a92.3 92.3 0 001.66-.096c.685-.044 1.357-.09 2.016-.14l1.756-.11c.541-.035.841-.052.901-.052h.03c.01 0 .024.005.044.014.02.01.039.025.058.045a8.52 8.52 0 01.694.62c-.226.089-.51.197-.856.325l-1.077.398-1.1.406c-.359.133-.672.25-.938.347l-1.387.502 1.048 1.048 1.86 1.919.266.266.383.014h.31c.168 0 .35-.001.547-.007.197-.005.389-.007.575-.007h.709c.01 0 .017-.008.022-.022.006-.015.012-.023.022-.023a125.785 125.785 0 01-1.993 1.24l-.192.133-.132.192a162.067 162.067 0 01-1.093 1.742 1.672 1.672 0 01-.118.207c-.01 0-.002-.002.022-.008.025-.004.033-.012.023-.022v-2.494l-.28-.28-1.92-1.847-1.048-1.047-.517 1.388c-.098.275-.211.59-.34.944-.127.354-.26.716-.397 1.085-.138.369-.269.72-.392 1.056-.122.335-.229.62-.317.855a48.586 48.586 0 01-.62-.693.28.28 0 01-.052-.089.287.287 0 01-.007-.073c.01-.05.03-.32.059-.813.03-.491.059-1.037.088-1.638.05-.679.094-1.377.133-2.096.04-.718.074-1.3.104-1.742l.03-.414-3.41-3.409c-.335-.335-.513-.647-.532-.937-.02-.29-.015-.48.014-.569a.983.983 0 01.325-.044m0-.945c-.226 0-.425.03-.598.089a1.04 1.04 0 00-.405.236c-.197.197-.298.58-.304 1.151-.004.57.269 1.132.82 1.683l3.115 3.115c-.02.433-.052 1-.096 1.697-.044.7-.086 1.386-.125 2.06L4.53 12.73c-.03.497-.044.755-.044.775-.01.08-.005.188.015.325.02.138.103.295.25.472.148.177.473.537.975 1.078a.93.93 0 00.258.185.643.643 0 00.273.066h.074a.839.839 0 00.228-.089c.094-.05.17-.147.23-.295a348.184 348.184 0 01.672-1.793c.172-.458.346-.933.523-1.425.178-.492.33-.905.458-1.24l1.919 1.86c.01.266.012.654.007 1.166-.005.512-.002.852.007 1.019a3 3 0 00.023.273c.014.133.15.347.406.642.088.079.177.14.265.184a.56.56 0 00.251.067h.015a.46.46 0 00.244-.067.552.552 0 00.184-.184c.01-.02.084-.138.221-.354a118.718 118.718 0 00.96-1.535c.158-.257.27-.438.34-.547a68.416 68.416 0 002.509-1.58.457.457 0 00.17-.22.694.694 0 00.037-.207.667.667 0 00-.221-.473l-.045-.044c-.285-.236-.494-.367-.627-.39a1.86 1.86 0 00-.288-.038h-.104c-.177 0-.45.002-.82.008-.368.005-.694.006-.98.006h-.295l-1.86-1.919 1.254-.464a594.616 594.616 0 002.65-.989c.349-.133.544-.204.583-.215.157-.059.261-.137.31-.235a.572.572 0 00.073-.237.54.54 0 00-.036-.317.93.93 0 00-.2-.288c-.54-.501-.9-.826-1.077-.974a1.07 1.07 0 00-.708-.266h-.075a239.646 239.646 0 00-2.561.155l-2.074.14c-.708.05-1.278.084-1.712.103l-3.115-3.1c-.305-.304-.62-.518-.945-.641a2.565 2.565 0 00-.9-.185"/></svg>