<svg xmlns="http://www.w3.org/2000/svg" xmlns:xlink="http://www.w3.org/1999/xlink" width="84" height="89"><defs><filter id="a" width="124.3%" height="121.5%" x="-12.1%" y="-10.8%" filterUnits="objectBoundingBox"><feMorphology in="SourceAlpha" operator="dilate" radius="2.5" result="shadowSpreadOuter1"/><feOffset in="shadowSpreadOuter1" result="shadowOffsetOuter1"/><feGaussianBlur in="shadowOffsetOuter1" result="shadowBlurOuter1" stdDeviation="2"/><feComposite in="shadowBlurOuter1" in2="SourceAlpha" operator="out" result="shadowBlurOuter1"/><feColorMatrix in="shadowBlurOuter1" values="0 0 0 0 0.488919005 0 0 0 0 0.488919005 0 0 0 0 0.488919005 0 0 0 0.5 0"/></filter><path id="b" d="M42.51 2.36l20 11.57A15 15 0 0170 26.912v23.189a15 15 0 01-7.49 12.984l-20 11.57a15 15 0 01-15.02 0l-20-11.57A15 15 0 010 50.102V26.913A15 15 0 017.49 13.93l20-11.569a15 15 0 0115.02 0z"/></defs><g fill="none" fill-rule="evenodd"><g transform="translate(7 6)"><use fill="#000" filter="url(#a)" xlink:href="#b"/><use fill="#19A4D5" stroke="#E0EFFB" stroke-width="5" xlink:href="#b"/></g><path fill="#FFF" fill-rule="nonzero" d="M35.49 59.984h-.078L35 59.87l-.04-.02h-.019l-.039-.037h-.04l-.038-.038-.118-.056v-.038l-.02-.018v-.038h-.02v-.038l.02-.075.02-.019v-.056l.04-.057.313-.301.02-.038h-.138l-.235.038-.079.038-.274.17-.098.112-.04.113-.019.019-.02.056v.02l-.02.018v.188l.02.038v.037l.079.189.04.037.038.076.04.037.058.076.04.037h.02l.078.075.039.02.02.018.294.188.078.02.078.056.57.17.45.074.882.02.177-.038h.098l.353-.057.549-.17.137-.075h.02l.02-.018.293-.17.079-.056.216-.226.02-.038.038-.038.02-.056.04-.075.019-.057v-.037l.02-.057v-.17l-.02-.056v-.037l-.098-.189-.02-.018-.02-.038-.039-.019-.078-.075-.216-.113-.215-.057-.118-.018h-.079l-.02.018v.02l.236.206.04.057.019.037.02.02.039.056.039.037v.038l.02.113h-.02v.075h-.02l-.098.075-.02.02h-.019l-.04.018-.313.113h-.02l-.019.019h-.04l-.058.019h-.059l-.333.075h-.137l-.079.019h-.078a3.313 3.313 0 01-.589.019.173.173 0 01-.156 0l-.785-.038-.196-.056zm1.804-30.495a.996.996 0 00-.686-.263h-.02c-.248 0-.47.081-.666.245l-.04.037a.93.93 0 00-.255.64v29.346l.06.019.784.038a.173.173 0 00.156 0c.144.012.34.006.589-.02h.078l.079-.018h.137l.078-.019V30.148a.886.886 0 00-.294-.659zm14.177 3.615c-.183-.139-.419-.208-.706-.208H39.47c-.759 0-1.138.358-1.138 1.073v5.177c0 .703.38 1.054 1.138 1.054h11.294c.287 0 .53-.063.725-.188h-.02a.687.687 0 00.197-.188l2.235-3.012a.45.45 0 00.078-.264.45.45 0 00-.078-.263l-2.235-2.993v.019a1.244 1.244 0 00-.157-.189h-.04v-.018z"/></g></svg>