<svg xmlns="http://www.w3.org/2000/svg" width="12" height="16"><path fill="#FFB334" fill-rule="evenodd" d="M5.357.679v5.357c0 .678-.435 1.289-1.071 1.515v6.52a1.08 1.08 0 01-1.072 1.072H2.143A1.079 1.079 0 011.07 14.07V7.55A1.617 1.617 0 010 6.036V.679A.54.54 0 01.536.143a.54.54 0 01.535.536V4.16a.54.54 0 00.536.535.54.54 0 00.536-.535V.679a.54.54 0 01.536-.536.54.54 0 01.535.536V4.16a.54.54 0 00.536.535.54.54 0 00.536-.535V.679A.54.54 0 014.82.143a.54.54 0 01.536.536zm6.429 0V14.07a1.08 1.08 0 01-1.072 1.072H9.643A1.079 1.079 0 018.57 14.07V9.786H6.696a.275.275 0 01-.267-.268V2.82A2.686 2.686 0 019.107.143h2.143a.54.54 0 01.536.536z"/></svg>