<svg xmlns="http://www.w3.org/2000/svg" xmlns:xlink="http://www.w3.org/1999/xlink" width="84" height="90"><defs><filter id="a" width="124.3%" height="122.4%" x="-12.1%" y="-11.2%" filterUnits="objectBoundingBox"><feMorphology in="SourceAlpha" operator="dilate" radius="2.5" result="shadowSpreadOuter1"/><feOffset in="shadowSpreadOuter1" result="shadowOffsetOuter1"/><feGaussianBlur in="shadowOffsetOuter1" result="shadowBlurOuter1" stdDeviation="2"/><feComposite in="shadowBlurOuter1" in2="SourceAlpha" operator="out" result="shadowBlurOuter1"/><feColorMatrix in="shadowBlurOuter1" values="0 0 0 0 0.488919005 0 0 0 0 0.488919005 0 0 0 0 0.488919005 0 0 0 0.5 0"/></filter><path id="b" d="M42.486 1.997l20 11.518A15 15 0 0170 26.514v22.972a15 15 0 01-7.514 12.999l-20 11.518a15 15 0 01-14.972 0l-20-11.518A15 15 0 010 49.486V26.514a15 15 0 017.514-12.999l20-11.518a15 15 0 0114.972 0z"/></defs><g fill="none" fill-rule="evenodd"><g transform="translate(7 7)"><use fill="#000" filter="url(#a)" xlink:href="#b"/><use fill="#FFB334" stroke="#FBEEE0" stroke-width="5" xlink:href="#b"/></g><path fill="#FFF" d="M35.815 49.062h2.846v2.18h-2.846V56H33.04v-4.758h-9.261V49.67l9.09-14.287h2.946v13.679zm-9.063 0h6.288V39.39l-.085-.014-.27.708-5.933 8.978zm17.035 6.258l-2.124 4.333h-1.657l.992-4.474V52.87h2.79v2.45zm3.738-8.623l1.19-11.314h10.323v2.478H51.08l-.68 5.791a6.431 6.431 0 011.451-.8c.534-.212 1.15-.328 1.848-.347 1.898-.019 3.392.6 4.482 1.855 1.09 1.256 1.635 2.946 1.635 5.07 0 2.067-.554 3.729-1.663 4.984-1.11 1.256-2.726 1.883-4.85 1.883-1.747 0-3.2-.476-4.362-1.43-1.16-.953-1.718-2.355-1.67-4.205l.028-.085h2.52c0 1.123.324 1.994.97 2.612.647.619 1.485.928 2.514.928 1.18 0 2.095-.416 2.747-1.246.651-.831.977-1.969.977-3.413 0-1.322-.33-2.407-.991-3.257-.661-.85-1.572-1.274-2.733-1.274-1.095 0-1.888.165-2.38.495-.49.33-.849.836-1.075 1.516l-2.323-.241z"/></g></svg>