<svg xmlns="http://www.w3.org/2000/svg" xmlns:xlink="http://www.w3.org/1999/xlink" width="84" height="89"><defs><filter id="a" width="124.3%" height="121.5%" x="-12.1%" y="-10.8%" filterUnits="objectBoundingBox"><feMorphology in="SourceAlpha" operator="dilate" radius="2.5" result="shadowSpreadOuter1"/><feOffset in="shadowSpreadOuter1" result="shadowOffsetOuter1"/><feGaussianBlur in="shadowOffsetOuter1" result="shadowBlurOuter1" stdDeviation="2"/><feComposite in="shadowBlurOuter1" in2="SourceAlpha" operator="out" result="shadowBlurOuter1"/><feColorMatrix in="shadowBlurOuter1" values="0 0 0 0 0.488919005 0 0 0 0 0.488919005 0 0 0 0 0.488919005 0 0 0 0.5 0"/></filter><path id="b" d="M42.51 2.36l20 11.57A15 15 0 0170 26.912v23.189a15 15 0 01-7.49 12.984l-20 11.57a15 15 0 01-15.02 0l-20-11.57A15 15 0 010 50.102V26.913A15 15 0 017.49 13.93l20-11.569a15 15 0 0115.02 0z"/></defs><g fill="none" fill-rule="evenodd"><g transform="translate(7 6)"><use fill="#000" filter="url(#a)" xlink:href="#b"/><use fill="#DD4343" stroke="#FBE0E0" stroke-width="5" xlink:href="#b"/></g><path d="M50.82 58H31.18c-.651 0-1.18.547-1.18 1.222 0 .675.529 1.222 1.18 1.222h1.983C33.4 61.19 34.617 62 36.008 62h9.983c1.39 0 2.609-.81 2.845-1.556h1.982c.653 0 1.182-.547 1.182-1.222 0-.675-.529-1.222-1.18-1.222zm6.849-13.54C57.2 42.789 56.16 41 54.645 41H27s0 15 7.88 15h9.757c1.99 0 3.477-.958 4.588-2.389.401.043.813.07 1.239.07 1.55 0 3.232-.327 4.776-1.317 2.905-1.86 3.124-5.42 2.429-7.903zm-3.621 5.946c-1.1.706-2.335.948-3.506.96 1.198-2.675 1.67-5.919 1.856-8.058h2.166c.336.222 1.08 1.481 1.18 3.22.057 1.005-.087 2.848-1.696 3.878zM32.81 35.902c1.164.684 2.004 1.179 2.004 3.529 0 .314.266.569.593.569a.581.581 0 00.593-.57c0-2.987-1.306-3.756-2.57-4.5-.664-.389-1.289-.757-1.782-1.483-1.295-1.91.544-3.266.758-3.414a.557.557 0 00.138-.794.608.608 0 00-.827-.133c-1.047.714-2.618 2.67-1.063 4.963.639.94 1.445 1.415 2.156 1.833zm4.999 0c1.163.684 2.004 1.179 2.004 3.529 0 .314.266.569.594.569a.582.582 0 00.593-.57c0-2.987-1.307-3.756-2.57-4.5-.663-.389-1.29-.757-1.781-1.483-1.297-1.91.543-3.266.756-3.414a.556.556 0 00.14-.794.609.609 0 00-.829-.133c-1.047.714-2.617 2.67-1.061 4.963.637.94 1.443 1.415 2.154 1.833zm7 0c1.163.684 2.004 1.179 2.004 3.529 0 .314.267.569.593.569a.582.582 0 00.594-.57c0-2.987-1.308-3.756-2.57-4.5-.663-.389-1.29-.757-1.781-1.483-1.297-1.91.543-3.266.757-3.414a.556.556 0 00.137-.794.609.609 0 00-.827-.133c-1.048.714-2.617 2.67-1.061 4.963.638.94 1.444 1.415 2.154 1.833z" fill="#FFF" fill-rule="nonzero"/></g></svg>