<svg xmlns="http://www.w3.org/2000/svg" width="14" height="14"><path fill="#FFB334" fill-rule="evenodd" d="M13.929 5.559c0 .15-.11.293-.218.401l-3.039 2.964.72 4.185c.009.058.009.109.009.167 0 .218-.1.419-.344.419a.68.68 0 01-.334-.1l-3.759-1.976-3.758 1.975a.707.707 0 01-.335.1c-.243 0-.351-.2-.351-.418 0-.058.008-.109.016-.167l.72-4.185L.21 5.96c-.1-.108-.21-.25-.21-.4 0-.252.26-.352.469-.385l4.202-.612L6.554.754c.075-.16.218-.343.41-.343.193 0 .335.184.41.343l1.884 3.808 4.202.612c.2.033.469.133.469.385z"/></svg>