<svg xmlns="http://www.w3.org/2000/svg" xmlns:xlink="http://www.w3.org/1999/xlink" width="84" height="89"><defs><filter id="a" width="124.3%" height="121.5%" x="-12.1%" y="-10.8%" filterUnits="objectBoundingBox"><feMorphology in="SourceAlpha" operator="dilate" radius="2.5" result="shadowSpreadOuter1"/><feOffset in="shadowSpreadOuter1" result="shadowOffsetOuter1"/><feGaussianBlur in="shadowOffsetOuter1" result="shadowBlurOuter1" stdDeviation="2"/><feComposite in="shadowBlurOuter1" in2="SourceAlpha" operator="out" result="shadowBlurOuter1"/><feColorMatrix in="shadowBlurOuter1" values="0 0 0 0 0.488919005 0 0 0 0 0.488919005 0 0 0 0 0.488919005 0 0 0 0.5 0"/></filter><path id="b" d="M42.51 2.36l20 11.57A15 15 0 0170 26.912v23.189a15 15 0 01-7.49 12.984l-20 11.57a15 15 0 01-15.02 0l-20-11.57A15 15 0 010 50.102V26.913A15 15 0 017.49 13.93l20-11.569a15 15 0 0115.02 0z"/></defs><g fill="none" fill-rule="evenodd"><g transform="translate(7 6)"><use fill="#000" filter="url(#a)" xlink:href="#b"/><use fill="#DD4343" stroke="#FBE0E0" stroke-width="5" xlink:href="#b"/></g><g fill="#FFF" fill-rule="nonzero"><path d="M36.553 58.385a9.11 9.11 0 006.097 2.346c4.971 0 9.01-4 9.01-8.923a8.826 8.826 0 00-3.611-7.154L50.029 42C53.136 44.308 55 47.962 55 51.808 55 58.538 49.485 64 42.69 64c-2.874 0-5.554-1-7.69-2.654l1.553-2.961zM40 30.5a3.5 3.5 0 007 0 3.5 3.5 0 00-7 0z"/><path d="M36.594 52.081H45V48H33.264L29 55.047 33.589 57zm4.937-10.336H35V46h11V36h-4.469z"/></g></g></svg>