<svg xmlns="http://www.w3.org/2000/svg" xmlns:xlink="http://www.w3.org/1999/xlink" width="84" height="89"><defs><filter id="a" width="124.3%" height="121.5%" x="-12.1%" y="-10.8%" filterUnits="objectBoundingBox"><feMorphology in="SourceAlpha" operator="dilate" radius="2.5" result="shadowSpreadOuter1"/><feOffset in="shadowSpreadOuter1" result="shadowOffsetOuter1"/><feGaussianBlur in="shadowOffsetOuter1" result="shadowBlurOuter1" stdDeviation="2"/><feComposite in="shadowBlurOuter1" in2="SourceAlpha" operator="out" result="shadowBlurOuter1"/><feColorMatrix in="shadowBlurOuter1" values="0 0 0 0 0.488919005 0 0 0 0 0.488919005 0 0 0 0 0.488919005 0 0 0 0.5 0"/></filter><path id="b" d="M42.51 2.36l20 11.57A15 15 0 0170 26.912v23.189a15 15 0 01-7.49 12.984l-20 11.57a15 15 0 01-15.02 0l-20-11.57A15 15 0 010 50.102V26.913A15 15 0 017.49 13.93l20-11.569a15 15 0 0115.02 0z"/></defs><g fill="none" fill-rule="evenodd"><g transform="translate(7 6)"><use fill="#000" filter="url(#a)" xlink:href="#b"/><use fill="#F7BE1D" stroke="#FBEEE0" stroke-width="5" xlink:href="#b"/></g><g fill="#FFF" fill-rule="nonzero" transform="translate(23 25)"><path d="M31.81 3.19C27.036-1.608 18.602-.908 12.98 4.707 8.181 9.499 6.987 16.344 9.72 21.214a1.38 1.38 0 01-.345 1.73l-8.268 6.863a2.968 2.968 0 00-.323 4.322 2.896 2.896 0 004.295-.17l6.955-8.359a1.384 1.384 0 011.733-.345c4.875 2.73 11.728 1.537 16.53-3.254 5.618-5.616 6.3-14.034 1.512-18.812zm-.216 10.323l-1.475-1.473 1.548-1.546a9.999 9.999 0 01-.064 3.02h-.01zm-4.148-9.238a7.692 7.692 0 013.258 3.254l-2.535 2.555-3.272-3.254 2.549-2.555zm-6.77 6.79l2.304-2.302 3.258 3.254-2.304 2.302-3.258-3.255zm1.304 5.205l-2.281 2.302-3.259-3.255 2.282-2.301 3.258 3.254zm2.526-12.938l-1.549 1.546-1.475-1.473a10.036 10.036 0 013.024-.073zm-5.978 1.045l2.475 2.471-2.304 2.302-2.922-2.978a12.445 12.445 0 012.751-1.795zm-4.636 3.815l2.871 2.872-2.281 2.279-2.222-2.219a12.147 12.147 0 011.632-2.932zm-2.304 8.023a9.732 9.732 0 01-.056-1.901l.982.98-.926.92zm4.207 6.214a7.692 7.692 0 01-3.258-3.254l1.945-1.91 3.258 3.221-1.945 1.943zm2.964.943l.921-.92.977.975a9.764 9.764 0 01-1.88-.055h-.018zm5.097-.653l-2.185-2.233 2.282-2.301 2.87 2.867c-.9.69-1.893 1.251-2.949 1.667h-.018zm2.014-6.444l2.304-2.302 2.475 2.472a12.426 12.426 0 01-1.811 2.762l-2.968-2.932z"/><circle cx="30.5" cy="30.5" r="4.5"/></g></g></svg>