<svg xmlns="http://www.w3.org/2000/svg" xmlns:xlink="http://www.w3.org/1999/xlink" width="27" height="27"><defs><rect id="c" width="43" height="30" rx="2"/><rect id="e" width="41" height="28" x="1" y="1" rx="1"/><circle id="a" cx="13.5" cy="13.5" r="13.5"/></defs><g fill="none" fill-rule="evenodd"><mask id="b" fill="#fff"><use xlink:href="#a"/></mask><use fill="#D8D8D8" xlink:href="#a"/><g mask="url(#b)"><g transform="translate(-5 -2)"><mask id="d" fill="#fff"><use xlink:href="#c"/></mask><use fill="#E82E2E" xlink:href="#c"/><path fill="#FFF" d="M24.104 9.474A7.814 7.814 0 0019.5 8c-4.142 0-7.5 3.134-7.5 7s3.358 7 7.5 7c1.735 0 3.333-.55 4.604-1.474a9 9 0 110-11.052z" mask="url(#d)"/><path stroke="#E6B6B7" d="M27.5 12.5v1h1v-1h-1zm0 4v1h1v-1h-1zm2-2v1h1v-1h-1zm-4 0v1h1v-1h-1z" mask="url(#d)"/><path fill="#FFF" d="M27 14h2v2h-2z" mask="url(#d)"/><use stroke="#2F343A" stroke-opacity=".157" xlink:href="#e"/></g></g></g></svg>