<svg xmlns="http://www.w3.org/2000/svg" width="25" height="16"><path d="M5.089 8.548c.588-.573 1.048-.573 1.635 0 1.15 1.12 2.48 1.12 3.63 0 .587-.573 1.047-.573 1.635 0 1.15 1.12 2.479 1.12 3.629 0 .306-.299.562-.423.818-.423.255 0 .51.149.817.423.563.548 1.201.822 1.815.822.613 0 1.252-.274 1.814-.822.588-.573 1.048-.573 1.636 0a.707.707 0 00.996 0 .665.665 0 000-.971c-1.15-1.12-2.478-1.12-3.628 0-.588.572-1.048.572-1.636 0-1.15-1.12-2.479-1.12-3.629 0-.588.572-1.048.572-1.635 0-1.15-1.12-2.48-1.12-3.63 0C9.05 7.875 8.795 8 8.54 8c-.256 0-.511-.15-.818-.423-1.15-1.12-2.479-1.12-3.629 0-.588.572-1.048.572-1.635 0a.707.707 0 00-.997 0c-.281.249-.281.697 0 .97 1.15 1.121 2.504 1.121 3.629 0zm0-5.506c.588-.573 1.048-.573 1.635 0 1.15 1.12 2.48 1.12 3.63 0 .587-.573 1.047-.573 1.635 0 1.15 1.12 2.479 1.12 3.629 0 .306-.299.562-.423.818-.423.255 0 .51.149.817.423.563.548 1.201.822 1.815.822.613 0 1.252-.274 1.814-.822.588-.573 1.048-.573 1.636 0a.707.707 0 00.996 0 .665.665 0 000-.971c-1.15-1.12-2.478-1.12-3.628 0-.588.572-1.048.572-1.636 0-1.15-1.12-2.479-1.12-3.629 0-.588.572-1.048.572-1.635 0-1.15-1.12-2.48-1.12-3.63 0-.306.299-.562.423-.817.423-.256 0-.511-.15-.818-.423-1.15-1.12-2.479-1.12-3.629 0-.588.572-1.048.572-1.635 0a.707.707 0 00-.997 0c-.281.249-.281.697 0 .97 1.15 1.121 2.504 1.121 3.629 0zm14.822 10.115c-.588.573-1.048.573-1.635 0-1.15-1.12-2.48-1.12-3.63 0-.587.573-1.047.573-1.635 0-1.15-1.12-2.479-1.12-3.629 0-.306.274-.562.424-.818.424-.255 0-.51-.125-.817-.424-1.15-1.12-2.48-1.12-3.63 0-.587.573-1.047.573-1.635 0-.255-.274-.69-.274-.996 0-.282.25-.282.673 0 .971 1.175 1.121 2.478 1.121 3.628 0 .588-.572 1.048-.572 1.636 0 1.15 1.121 2.479 1.121 3.629 0 .588-.572 1.048-.572 1.635 0 1.15 1.121 2.48 1.121 3.63 0 .306-.273.562-.423.817-.423.256 0 .511.125.818.423.562.548 1.201.822 1.814.822.614 0 1.253-.274 1.815-.822.588-.572 1.048-.572 1.635 0 .256.274.69.274.997 0 .281-.249.281-.672 0-.97-1.15-1.121-2.504-1.121-3.629 0z" fill="#BDBDBD" stroke="#BDBDBD" stroke-width=".5"/></svg>