<svg xmlns="http://www.w3.org/2000/svg" width="26" height="19"><path fill="#4AA5ED" fill-rule="evenodd" d="M4.852 10.348c1.493-1.475 3.239-2.473 5.236-2.996 1.96-.504 3.91-.504 5.852 0a11.285 11.285 0 015.208 2.996L18.852 12.7a8.1 8.1 0 00-3.752-2.156 8.422 8.422 0 00-4.2 0A8.1 8.1 0 007.148 12.7l-2.296-2.352zM9.5 15.052a4.775 4.775 0 012.212-1.26 5.021 5.021 0 012.576 0 4.775 4.775 0 012.212 1.26l-3.5 3.5-3.5-3.5zM.148 5.7a18.195 18.195 0 016.02-3.976 18.374 18.374 0 016.86-1.316c2.37 0 4.648.439 6.832 1.316A17.892 17.892 0 0125.852 5.7L23.5 8.052a14.597 14.597 0 00-4.9-3.248A14.74 14.74 0 0013 3.712a14.74 14.74 0 00-5.6 1.092 14.597 14.597 0 00-4.9 3.248L.148 5.7z"/></svg>